<?xml version="1.0" encoding="utf-8" standalone="no"?>
<!DOCTYPE svg PUBLIC "-//W3C//DTD SVG 1.1//EN"
  "http://www.w3.org/Graphics/SVG/1.1/DTD/svg11.dtd">
<!-- Created with matplotlib (https://matplotlib.org/) -->
<svg height="288pt" version="1.1" viewBox="0 0 432 288" width="432pt" xmlns="http://www.w3.org/2000/svg" xmlns:xlink="http://www.w3.org/1999/xlink">
 <metadata>
  <rdf:RDF xmlns:cc="http://creativecommons.org/ns#" xmlns:dc="http://purl.org/dc/elements/1.1/" xmlns:rdf="http://www.w3.org/1999/02/22-rdf-syntax-ns#">
   <cc:Work>
    <dc:type rdf:resource="http://purl.org/dc/dcmitype/StillImage"/>
    <dc:date>2021-03-12T10:09:46.321242</dc:date>
    <dc:format>image/svg+xml</dc:format>
    <dc:creator>
     <cc:Agent>
      <dc:title>Matplotlib v3.3.2, https://matplotlib.org/</dc:title>
     </cc:Agent>
    </dc:creator>
   </cc:Work>
  </rdf:RDF>
 </metadata>
 <defs>
  <style type="text/css">*{stroke-linecap:butt;stroke-linejoin:round;}</style>
 </defs>
 <g id="figure_1">
  <g id="patch_1">
   <path d="M 0 288 
L 432 288 
L 432 0 
L 0 0 
z
" style="fill:none;"/>
  </g>
  <g id="axes_1">
   <g id="patch_2">
    <path d="M 54 252 
L 388.8 252 
L 388.8 34.56 
L 54 34.56 
z
" style="fill:#ffffff;"/>
   </g>
   <g id="PolyCollection_1">
    <path clip-path="url(#p1d37497644)" d="M 69.743707 175.695136 
L 69.743707 242.116364 
L 70.50208 241.07027 
L 71.33631 191.026107 
L 71.33631 174.982851 
L 71.33631 174.982851 
L 70.50208 175.226528 
L 69.743707 175.695136 
z
" style="fill:#008000;fill-opacity:0.2;stroke:#008000;stroke-opacity:0.2;"/>
    <path clip-path="url(#p1d37497644)" d="M 240.472132 164.169725 
L 240.472132 166.946059 
L 241.377149 166.895661 
L 242.10329 166.851296 
L 242.983005 166.787425 
L 243.778899 166.734897 
L 244.627333 166.697151 
L 245.302704 166.648204 
L 246.152371 166.633756 
L 246.898483 166.725939 
L 247.78452 166.571721 
L 248.510965 166.469389 
L 249.309834 166.421492 
L 250.028478 166.388524 
L 250.900467 166.329606 
L 251.687665 166.264559 
L 252.516839 166.263882 
L 253.239584 166.23667 
L 254.034403 166.22161 
L 254.788026 166.215203 
L 255.664891 166.231615 
L 256.463821 166.245624 
L 257.215668 166.248439 
L 258.000487 166.291208 
L 258.809622 166.367122 
L 259.61764 166.415263 
L 260.390845 166.478613 
L 261.176337 166.542135 
L 261.908408 166.59251 
L 262.802674 166.656939 
L 263.556887 166.724026 
L 264.339612 166.771693 
L 265.093827 166.814367 
L 265.902842 166.843424 
L 266.691656 166.875754 
L 267.526964 166.907868 
L 268.199533 166.95337 
L 269.082723 167.051552 
L 269.888976 167.109623 
L 270.688857 167.147234 
L 271.446948 167.191944 
L 272.245169 167.208512 
L 273.03011 167.199368 
L 273.835802 167.170686 
L 274.650077 167.12584 
L 275.411215 167.036095 
L 276.218567 166.923962 
L 277.077126 166.771771 
L 277.853208 166.638825 
L 278.609363 166.468124 
L 279.481761 166.319835 
L 280.26476 166.100274 
L 281.12 165.842047 
L 281.957523 165.656484 
L 282.788131 165.394645 
L 283.524352 165.139085 
L 284.384846 164.909981 
L 285.174213 164.655139 
L 286.036099 164.366641 
L 286.784501 164.13087 
L 287.605971 163.848979 
L 288.465642 163.583965 
L 289.338588 163.292482 
L 290.093634 163.066109 
L 290.928115 162.762896 
L 291.724399 162.505538 
L 292.591537 162.225544 
L 293.403323 161.91803 
L 294.168609 161.667865 
L 295.039071 161.444582 
L 295.821243 161.138929 
L 296.676757 160.866438 
L 297.498248 160.597453 
L 298.306138 160.358273 
L 299.080819 160.117956 
L 299.958215 159.887864 
L 300.827957 159.690072 
L 301.603652 159.440409 
L 302.359337 159.235691 
L 303.16771 159.026284 
L 304.008545 158.817759 
L 304.82505 158.618723 
L 305.614801 158.482145 
L 306.449723 158.299373 
L 307.319595 158.107806 
L 308.114814 157.948131 
L 308.903673 157.731627 
L 309.647599 157.616544 
L 310.47383 157.487158 
L 310.47383 157.468216 
L 310.47383 157.468216 
L 309.647599 157.495359 
L 308.903673 157.540965 
L 308.114814 157.591349 
L 307.319595 157.727265 
L 306.449723 157.765182 
L 305.614801 157.888113 
L 304.82505 157.930866 
L 304.008545 157.933353 
L 303.16771 158.070012 
L 302.359337 158.117045 
L 301.603652 158.184699 
L 300.827957 158.287197 
L 299.958215 158.424853 
L 299.080819 158.37445 
L 298.306138 158.50296 
L 297.498248 158.51652 
L 296.676757 158.672613 
L 295.821243 158.679419 
L 295.039071 158.79303 
L 294.168609 158.850664 
L 293.403323 158.824598 
L 292.591537 158.883945 
L 291.724399 158.907182 
L 290.928115 158.781305 
L 290.093634 158.7999 
L 289.338588 158.558945 
L 288.465642 157.508156 
L 287.605971 156.066191 
L 286.784501 154.874884 
L 286.036099 153.357607 
L 285.174213 151.441431 
L 284.384846 148.944486 
L 283.524352 144.51821 
L 282.788131 138.592885 
L 281.957523 132.417624 
L 281.12 114.732044 
L 280.26476 86.360711 
L 279.481761 44.767957 
L 278.609363 44.443636 
L 277.853208 82.996157 
L 277.077126 90.358697 
L 276.218567 69.216065 
L 275.411215 68.428787 
L 274.650077 91.041861 
L 273.835802 113.556323 
L 273.03011 125.776357 
L 272.245169 127.670942 
L 271.446948 120.59238 
L 270.688857 102.06335 
L 269.888976 86.009892 
L 269.082723 91.352211 
L 268.199533 106.382423 
L 267.526964 121.808046 
L 266.691656 127.968175 
L 265.902842 123.44953 
L 265.093827 124.813807 
L 264.339612 132.908117 
L 263.556887 130.64202 
L 262.802674 102.643054 
L 261.908408 93.886444 
L 261.176337 111.502333 
L 260.390845 109.444281 
L 259.61764 100.374677 
L 258.809622 72.591002 
L 258.000487 70.028583 
L 257.215668 64.319896 
L 256.463821 75.548027 
L 255.664891 93.125475 
L 254.788026 103.488726 
L 254.034403 125.503799 
L 253.239584 146.225254 
L 252.516839 153.462169 
L 251.687665 152.827113 
L 250.900467 149.135746 
L 250.028478 144.81957 
L 249.309834 141.621955 
L 248.510965 140.25542 
L 247.78452 138.553598 
L 246.898483 139.676585 
L 246.152371 144.146892 
L 245.302704 146.82895 
L 244.627333 148.374202 
L 243.778899 150.278537 
L 242.983005 153.364072 
L 242.10329 157.053962 
L 241.377149 160.617989 
L 240.472132 164.169725 
z
" style="fill:#008000;fill-opacity:0.2;stroke:#008000;stroke-opacity:0.2;"/>
    <path clip-path="url(#p1d37497644)" d="M 372.280107 162.871628 
L 372.280107 162.166882 
L 371.544442 164.091497 
L 370.647966 165.55275 
L 369.8085 166.877721 
L 369.042342 168.06482 
L 368.213719 168.898007 
L 367.352515 169.644721 
L 366.513485 170.428611 
L 365.702163 171.009857 
L 364.92506 171.488396 
L 364.156764 172.015176 
L 363.274375 172.47082 
L 362.429281 172.833849 
L 361.612323 173.191749 
L 360.834732 173.53307 
L 360.00232 173.890287 
L 359.162744 174.162869 
L 358.383448 174.387138 
L 357.515957 174.633706 
L 356.736076 174.83927 
L 355.900183 175.085155 
L 355.068509 175.31576 
L 354.273374 175.493258 
L 353.456837 175.703749 
L 352.590707 175.905357 
L 351.781517 176.031894 
L 351.003009 176.183154 
L 350.152959 176.382235 
L 349.354593 176.554478 
L 348.519984 176.691445 
L 347.715466 176.837463 
L 346.870954 176.946198 
L 346.086944 177.058652 
L 345.233266 177.231453 
L 344.47697 177.416511 
L 343.684699 177.528394 
L 342.807805 177.679172 
L 342.018501 177.829701 
L 341.277242 177.958843 
L 340.482947 178.113519 
L 339.644424 178.262339 
L 338.86326 178.433292 
L 338.083048 178.560321 
L 337.247721 178.696041 
L 336.506297 178.823109 
L 335.71715 178.954695 
L 334.913183 179.15905 
L 334.147001 179.303578 
L 333.307496 179.434841 
L 332.470561 179.643787 
L 331.775024 179.787861 
L 330.981782 179.937431 
L 330.148106 180.136382 
L 329.360973 180.307566 
L 328.535564 180.485062 
L 327.730772 180.679734 
L 327.020799 180.855057 
L 326.208503 181.033831 
L 325.425083 181.248623 
L 324.616206 181.45449 
L 323.865994 181.639356 
L 323.005088 181.858491 
L 322.255289 182.080771 
L 321.447399 182.282813 
L 320.708263 182.532741 
L 319.887205 182.81457 
L 319.132565 183.030361 
L 318.31069 183.254077 
L 317.542009 183.520845 
L 316.711472 183.774256 
L 315.893718 184.040924 
L 315.149346 184.289696 
L 314.280547 184.581954 
L 313.513883 184.882268 
L 312.722399 185.14103 
L 311.916057 185.440574 
L 311.129566 185.729199 
L 310.315458 186.018755 
L 309.476418 186.366391 
L 308.658954 186.753002 
L 307.884868 187.055906 
L 307.042855 187.366461 
L 306.256249 187.717244 
L 305.391605 188.083188 
L 304.599236 188.44509 
L 303.779111 188.772451 
L 303.009245 189.141784 
L 302.132293 189.487761 
L 301.292393 189.897 
L 300.552729 190.260675 
L 299.700853 190.620773 
L 298.864952 190.989604 
L 297.980748 191.456 
L 297.237786 191.807057 
L 296.406481 192.197984 
L 295.576293 192.588744 
L 294.753178 192.981686 
L 293.886573 193.373426 
L 293.162409 193.739754 
L 292.244743 194.110945 
L 291.450971 194.484877 
L 290.630028 194.843535 
L 289.833128 195.179912 
L 288.988467 195.535135 
L 288.156486 195.85931 
L 287.346352 196.234002 
L 286.600473 196.552297 
L 285.762086 196.8249 
L 284.866584 197.091554 
L 284.097277 197.296599 
L 283.309339 197.542006 
L 282.478692 197.778345 
L 281.689051 197.937272 
L 280.860379 198.088129 
L 280.087311 198.200049 
L 279.249548 198.298511 
L 278.443447 198.373063 
L 277.624314 198.385883 
L 276.888751 198.439849 
L 276.033404 198.41448 
L 275.26219 198.305829 
L 274.41648 198.176894 
L 273.666109 198.064456 
L 272.930467 197.834304 
L 272.10156 197.629231 
L 271.299149 197.384322 
L 270.489577 197.072593 
L 269.730658 196.729847 
L 268.945862 196.404925 
L 268.09242 196.042899 
L 267.32439 195.635472 
L 266.595338 195.209443 
L 265.813345 194.769976 
L 264.903957 194.263995 
L 264.183575 193.783795 
L 263.428742 193.248683 
L 262.61568 192.76284 
L 261.841151 192.283561 
L 260.986119 191.742829 
L 260.282072 191.188615 
L 259.416584 190.692549 
L 258.651584 190.21209 
L 257.879045 189.682063 
L 257.142046 189.23145 
L 256.257439 188.79993 
L 255.528717 188.302966 
L 254.70951 187.8766 
L 253.954691 187.414723 
L 253.192227 187.025688 
L 252.333614 186.62663 
L 251.54705 186.278395 
L 250.757649 185.884603 
L 249.9633 185.519126 
L 249.146259 185.155428 
L 248.352583 184.852839 
L 247.585795 184.435004 
L 246.735646 183.978351 
L 246.735646 184.215709 
L 246.735646 184.215709 
L 247.585795 184.651182 
L 248.352583 185.113542 
L 249.146259 185.593891 
L 249.9633 186.076089 
L 250.757649 186.596845 
L 251.54705 187.139956 
L 252.333614 187.694036 
L 253.192227 188.250405 
L 253.954691 188.879529 
L 254.70951 189.493577 
L 255.528717 190.088252 
L 256.257439 190.775889 
L 257.142046 191.392871 
L 257.879045 192.010203 
L 258.651584 192.71575 
L 259.416584 193.392361 
L 260.282072 194.049915 
L 260.986119 194.698394 
L 261.841151 195.375049 
L 262.61568 195.946764 
L 263.428742 196.604136 
L 264.183575 197.246889 
L 264.903957 197.820175 
L 265.813345 198.343587 
L 266.595338 198.880513 
L 267.32439 199.306499 
L 268.09242 199.692561 
L 268.945862 200.113296 
L 269.730658 200.493341 
L 270.489577 200.752268 
L 271.299149 201.05486 
L 272.10156 201.279536 
L 272.930467 201.43207 
L 273.666109 201.55069 
L 274.41648 201.669154 
L 275.26219 201.689595 
L 276.033404 201.704333 
L 276.888751 201.610205 
L 277.624314 201.53708 
L 278.443447 201.34941 
L 279.249548 201.228508 
L 280.087311 200.988803 
L 280.860379 200.775915 
L 281.689051 200.543767 
L 282.478692 200.28743 
L 283.309339 199.910643 
L 284.097277 199.60951 
L 284.866584 199.283975 
L 285.762086 198.906829 
L 286.600473 198.512564 
L 287.346352 198.078823 
L 288.156486 197.641671 
L 288.988467 197.176509 
L 289.833128 196.774458 
L 290.630028 196.347239 
L 291.450971 195.841208 
L 292.244743 195.411128 
L 293.162409 194.97524 
L 293.886573 194.453526 
L 294.753178 193.997967 
L 295.576293 193.606212 
L 296.406481 193.084071 
L 297.237786 192.665778 
L 297.980748 192.163537 
L 298.864952 191.732335 
L 299.700853 191.231792 
L 300.552729 190.844455 
L 301.292393 190.427929 
L 302.132293 189.966409 
L 303.009245 189.566524 
L 303.779111 189.207557 
L 304.599236 188.755338 
L 305.391605 188.38413 
L 306.256249 188.057917 
L 307.042855 187.650535 
L 307.884868 187.297648 
L 308.658954 186.939825 
L 309.476418 186.575645 
L 310.315458 186.232615 
L 311.129566 185.940048 
L 311.916057 185.65703 
L 312.722399 185.303855 
L 313.513883 185.024465 
L 314.280547 184.762385 
L 315.149346 184.448596 
L 315.893718 184.172735 
L 316.711472 183.97594 
L 317.542009 183.66133 
L 318.31069 183.435223 
L 319.132565 183.188886 
L 319.887205 182.924483 
L 320.708263 182.67044 
L 321.447399 182.493023 
L 322.255289 182.258162 
L 323.005088 182.036902 
L 323.865994 181.822234 
L 324.616206 181.671688 
L 325.425083 181.404743 
L 326.208503 181.240088 
L 327.020799 181.092018 
L 327.730772 180.894062 
L 328.535564 180.671718 
L 329.360973 180.561926 
L 330.148106 180.354304 
L 330.981782 180.167335 
L 331.775024 180.054626 
L 332.470561 179.878543 
L 333.307496 179.708372 
L 334.147001 179.576204 
L 334.913183 179.422448 
L 335.71715 179.259938 
L 336.506297 179.113552 
L 337.247721 179.029447 
L 338.083048 178.887804 
L 338.86326 178.688701 
L 339.644424 178.592328 
L 340.482947 178.438156 
L 341.277242 178.286279 
L 342.018501 178.19282 
L 342.807805 178.052814 
L 343.684699 177.907772 
L 344.47697 177.803508 
L 345.233266 177.670443 
L 346.086944 177.517969 
L 346.870954 177.403837 
L 347.715466 177.281468 
L 348.519984 177.208548 
L 349.354593 176.987141 
L 350.152959 176.903039 
L 351.003009 176.730369 
L 351.781517 176.590254 
L 352.590707 176.465897 
L 353.456837 176.316617 
L 354.273374 176.134148 
L 355.068509 175.996436 
L 355.900183 175.820182 
L 356.736076 175.624942 
L 357.515957 175.450559 
L 358.383448 175.250205 
L 359.162744 175.058415 
L 360.00232 174.770392 
L 360.834732 174.510102 
L 361.612323 174.237946 
L 362.429281 173.900011 
L 363.274375 173.600413 
L 364.156764 173.202923 
L 364.92506 172.750089 
L 365.702163 172.261918 
L 366.513485 171.692696 
L 367.352515 171.019142 
L 368.213719 170.270597 
L 369.042342 169.336885 
L 369.8085 168.271448 
L 370.647966 166.854329 
L 371.544442 165.130644 
L 372.280107 162.871628 
z
" style="fill:#008000;fill-opacity:0.2;stroke:#008000;stroke-opacity:0.2;"/>
   </g>
   <g id="PolyCollection_2">
    <path clip-path="url(#p1d37497644)" d="M 137.764303 174.95763 
L 137.764303 182.228949 
L 136.977958 182.228949 
L 136.144553 182.551101 
L 135.3411 182.695036 
L 134.49825 182.911938 
L 133.637823 183.261002 
L 132.858459 183.674518 
L 131.98491 184.185596 
L 131.151461 184.706888 
L 130.328403 185.089988 
L 129.598185 185.695302 
L 128.761017 186.247177 
L 127.937241 186.929216 
L 127.101745 187.50541 
L 126.259999 188.14425 
L 125.504199 188.803589 
L 124.665007 189.38146 
L 123.756894 189.96831 
L 122.961356 190.482084 
L 122.133323 190.984458 
L 121.276658 191.479977 
L 120.505604 191.579449 
L 119.688335 191.70082 
L 118.836371 191.651433 
L 117.98878 191.503826 
L 117.28532 191.417413 
L 116.416895 191.135901 
L 115.591991 190.88545 
L 114.790078 190.721692 
L 114.01687 190.457305 
L 113.201524 190.244921 
L 112.397167 190.229775 
L 111.547247 190.194092 
L 110.76529 190.329967 
L 109.96232 190.412183 
L 109.181856 190.499146 
L 108.427965 190.72493 
L 107.603123 191.005887 
L 106.811639 191.475666 
L 106.015532 191.884684 
L 105.232267 192.280055 
L 104.445655 192.934102 
L 103.682799 193.681011 
L 102.900982 194.285161 
L 102.141205 195.043966 
L 101.338015 196.030175 
L 100.517627 196.890744 
L 99.688722 198.241474 
L 98.908835 198.995834 
L 98.145963 199.975702 
L 97.413956 201.049581 
L 96.602376 202.207708 
L 95.77889 203.438901 
L 94.960011 204.417116 
L 94.243553 205.363489 
L 93.41778 206.496976 
L 92.634887 207.238454 
L 91.826592 208.055936 
L 91.101653 208.815766 
L 90.281358 209.700927 
L 89.493407 210.333776 
L 88.661935 210.50438 
L 87.918114 210.437261 
L 87.116403 210.136658 
L 86.250312 209.843711 
L 85.532144 209.371411 
L 84.681433 208.712398 
L 83.939588 207.954196 
L 83.131231 207.331721 
L 82.368327 206.545971 
L 81.556233 205.882194 
L 80.787662 205.555233 
L 79.848879 205.021767 
L 79.087143 204.711511 
L 78.334774 204.794071 
L 77.491503 204.781878 
L 76.72902 205.014512 
L 75.850801 205.795305 
L 75.042506 206.569195 
L 74.187656 207.602492 
L 73.411177 209.31701 
L 72.561304 211.525143 
L 71.773588 214.322378 
L 70.942722 217.792001 
L 70.101271 222.703709 
L 69.55131 229.462319 
L 69.218182 235.386496 
L 69.218182 240.462569 
L 69.218182 176.561332 
L 69.218182 176.561332 
L 69.218182 179.266629 
L 69.55131 177.525353 
L 70.101271 177.379457 
L 70.942722 177.241476 
L 71.773588 177.081845 
L 72.561304 176.958709 
L 73.411177 176.84932 
L 74.187656 176.729576 
L 75.042506 176.640681 
L 75.850801 176.557983 
L 76.72902 176.460586 
L 77.491503 176.378659 
L 78.334774 176.310755 
L 79.087143 176.239213 
L 79.848879 176.162918 
L 80.787662 176.105601 
L 81.556233 176.049442 
L 82.368327 175.985232 
L 83.131231 175.936912 
L 83.939588 175.895571 
L 84.681433 175.838729 
L 85.532144 175.78718 
L 86.250312 175.761224 
L 87.116403 175.708745 
L 87.918114 175.668084 
L 88.661935 175.636214 
L 89.493407 175.599237 
L 90.281358 175.557472 
L 91.101653 175.543459 
L 91.826592 175.507825 
L 92.634887 175.468633 
L 93.41778 175.438343 
L 94.243553 175.415804 
L 94.960011 175.382225 
L 95.77889 175.353115 
L 96.602376 175.343332 
L 97.413956 175.31474 
L 98.145963 175.278262 
L 98.908835 175.268823 
L 99.688722 175.249648 
L 100.517627 175.222234 
L 101.338015 175.212679 
L 102.141205 175.197471 
L 102.900982 175.166299 
L 103.682799 175.149683 
L 104.445655 175.14314 
L 105.232267 175.12351 
L 106.015532 175.098681 
L 106.811639 175.097606 
L 107.603123 175.086585 
L 108.427965 175.060276 
L 109.181856 175.056754 
L 109.96232 175.052356 
L 110.76529 175.029321 
L 111.547247 175.027892 
L 112.397167 175.0234 
L 113.201524 175.008756 
L 114.01687 174.997133 
L 114.790078 175.001304 
L 115.591991 174.991682 
L 116.416895 174.979436 
L 117.28532 174.982239 
L 117.98878 174.981557 
L 118.836371 174.963108 
L 119.688335 174.966995 
L 120.505604 174.976104 
L 121.276658 174.957058 
L 122.133323 174.960217 
L 122.961356 174.967752 
L 123.756894 174.958441 
L 124.665007 174.949324 
L 125.504199 174.961794 
L 126.259999 174.964937 
L 127.101745 174.948701 
L 127.937241 174.956374 
L 128.761017 174.966657 
L 129.598185 174.953679 
L 130.328403 174.955403 
L 131.151461 174.970955 
L 131.98491 174.953983 
L 132.858459 174.959924 
L 133.637823 174.967731 
L 134.49825 174.96336 
L 135.3411 174.953205 
L 136.144553 174.96927 
L 136.977958 174.966649 
L 137.764303 174.95763 
z
" style="fill:url(#h9836eb9264);fill-opacity:0.1;stroke:#008000;stroke-opacity:0.1;"/>
    <path clip-path="url(#p1d37497644)" d="M 72.174661 174.810378 
L 72.174661 170.338061 
L 72.940259 162.780274 
L 73.615261 159.727671 
L 74.394184 157.880377 
L 75.3191 156.99314 
L 76.019381 156.581818 
L 76.817575 156.476452 
L 77.632751 156.43047 
L 78.423143 156.417979 
L 79.254835 156.456322 
L 79.978636 156.417665 
L 80.811526 156.135051 
L 81.523607 155.968038 
L 82.327809 155.70289 
L 83.177353 155.165602 
L 83.939325 154.784062 
L 84.699053 154.286522 
L 85.572257 153.571396 
L 86.384352 152.879575 
L 87.130818 152.030671 
L 87.933182 151.157528 
L 88.783084 150.222856 
L 89.48978 149.569799 
L 90.348323 148.63696 
L 91.146002 147.882284 
L 91.940521 147.140013 
L 92.782032 147.082625 
L 93.605863 146.902225 
L 94.393158 147.331391 
L 95.243047 147.390528 
L 96.134339 147.437329 
L 96.925293 148.07782 
L 97.732716 148.498475 
L 98.560017 148.980736 
L 99.308991 149.707725 
L 100.151468 150.295758 
L 101.082826 151.076429 
L 101.83356 151.817297 
L 102.601773 152.539318 
L 103.525986 153.549963 
L 104.321939 154.464729 
L 105.136334 155.283601 
L 105.926152 155.868832 
L 106.770202 156.482826 
L 107.620558 157.072388 
L 108.423295 157.418471 
L 109.144762 157.762786 
L 110.05047 158.123805 
L 110.88764 158.250305 
L 111.645937 158.444565 
L 112.529742 158.599402 
L 113.348762 158.642962 
L 114.202866 158.908626 
L 115.040193 159.185843 
L 115.791844 159.328271 
L 116.592782 159.38276 
L 117.420668 159.465074 
L 118.247719 159.472778 
L 119.033442 159.470546 
L 119.826008 159.225098 
L 120.587535 159.220336 
L 121.449432 159.028458 
L 122.239344 158.733706 
L 123.066784 158.629531 
L 123.840204 158.577491 
L 124.574911 158.42124 
L 125.425032 158.656429 
L 126.245881 158.785427 
L 127.058566 158.90378 
L 127.842296 159.21511 
L 128.529348 159.59305 
L 129.352181 159.967708 
L 130.167861 160.490734 
L 130.921021 160.971647 
L 131.745225 161.52068 
L 132.505358 161.958311 
L 133.294881 162.487456 
L 134.160225 163.161927 
L 134.920959 163.649658 
L 135.694222 164.15049 
L 136.475051 164.686126 
L 137.251219 165.15742 
L 138.021398 165.652908 
L 138.780933 166.10814 
L 139.595705 166.498772 
L 140.350055 166.906054 
L 141.221213 167.317119 
L 141.967852 167.63641 
L 142.789144 167.950035 
L 143.556673 168.270088 
L 144.397499 168.652717 
L 145.154224 168.98795 
L 145.936928 169.316201 
L 146.728606 169.631198 
L 147.53835 169.914116 
L 148.357081 170.178745 
L 149.130376 170.495653 
L 149.907515 170.715768 
L 150.704682 170.94402 
L 151.567939 171.196073 
L 152.33932 171.379037 
L 153.183983 171.552593 
L 153.949318 171.675034 
L 154.84131 171.868419 
L 155.627135 171.994677 
L 156.457293 172.111017 
L 157.154937 172.218905 
L 158.036687 172.29172 
L 158.838578 172.36036 
L 159.777875 172.446248 
L 160.517774 172.487916 
L 161.36538 172.534147 
L 162.09734 172.590678 
L 163.0051 172.626143 
L 163.886416 172.642714 
L 164.658029 172.671493 
L 165.465718 172.705253 
L 166.228426 172.713154 
L 167.061878 172.727497 
L 167.933252 172.750156 
L 168.749922 172.748522 
L 169.5501 172.746409 
L 170.388451 172.771184 
L 171.187812 172.763599 
L 172.010086 172.754342 
L 172.822708 172.767144 
L 173.690123 172.760459 
L 174.464405 172.74185 
L 175.360189 172.755923 
L 176.088738 172.764127 
L 176.948605 172.745352 
L 177.787097 172.729086 
L 178.613137 172.74296 
L 179.412475 172.733543 
L 180.181074 172.700868 
L 181.034433 172.701937 
L 181.817929 172.708488 
L 182.640397 172.678484 
L 183.444265 172.67051 
L 184.196756 172.68108 
L 184.9812 172.628757 
L 185.881343 172.610296 
L 186.658194 172.627972 
L 187.453531 172.62398 
L 188.20842 172.572973 
L 189.025069 172.559607 
L 189.772757 172.573378 
L 190.626143 172.520862 
L 191.364772 172.498856 
L 192.161245 172.51113 
L 192.97312 172.480805 
L 193.697148 172.426079 
L 194.516148 172.433568 
L 195.251124 172.406038 
L 196.108447 172.36909 
L 196.887206 172.352101 
L 197.676658 172.344575 
L 198.510052 172.296363 
L 199.234634 172.261602 
L 200.034995 172.253152 
L 200.822494 172.226558 
L 201.661449 172.172468 
L 202.368296 172.157046 
L 203.171425 172.13704 
L 203.999896 172.084452 
L 204.77474 172.053037 
L 205.584155 172.020164 
L 206.297596 171.961065 
L 207.128569 171.927023 
L 207.930267 171.912421 
L 208.732211 171.858573 
L 209.534554 171.790401 
L 210.340002 171.758421 
L 211.12619 171.704255 
L 211.912927 171.627332 
L 212.70941 171.588409 
L 213.486679 171.525019 
L 214.301459 171.435416 
L 215.13737 171.380679 
L 215.946535 171.303299 
L 216.746269 171.186727 
L 217.611767 171.109212 
L 218.321406 171.045538 
L 219.25566 170.90549 
L 220.033544 170.794347 
L 220.829889 170.703732 
L 221.631927 170.561731 
L 222.471703 170.41042 
L 223.2876 170.30512 
L 224.157762 170.150593 
L 224.931374 169.928279 
L 225.767583 169.785086 
L 226.58124 169.589157 
L 227.449287 169.375124 
L 228.269301 169.211549 
L 229.126816 169.010118 
L 229.794062 168.770011 
L 230.682522 168.584077 
L 231.519485 168.384857 
L 232.362882 168.173845 
L 233.149143 168.003705 
L 233.968912 167.856212 
L 234.820041 167.675995 
L 235.632816 167.519375 
L 236.441951 167.41275 
L 237.281935 167.279071 
L 238.040333 167.172688 
L 238.860592 167.110374 
L 239.747213 167.039442 
L 239.747213 167.316104 
L 239.747213 167.316104 
L 238.860592 169.478967 
L 238.040333 170.686268 
L 237.281935 171.391117 
L 236.441951 171.845179 
L 235.632816 172.145089 
L 234.820041 172.376919 
L 233.968912 172.561696 
L 233.149143 172.698327 
L 232.362882 172.805329 
L 231.519485 172.90865 
L 230.682522 172.989473 
L 229.794062 173.050292 
L 229.126816 173.116142 
L 228.269301 173.178817 
L 227.449287 173.216705 
L 226.58124 173.255564 
L 225.767583 173.308385 
L 224.931374 173.333032 
L 224.157762 173.361406 
L 223.2876 173.406632 
L 222.471703 173.433307 
L 221.631927 173.446125 
L 220.829889 173.480054 
L 220.033544 173.511305 
L 219.25566 173.526702 
L 218.321406 173.544436 
L 217.611767 173.5772 
L 216.746269 173.591428 
L 215.946535 173.604624 
L 215.13737 173.635801 
L 214.301459 173.659758 
L 213.486679 173.669522 
L 212.70941 173.695821 
L 211.912927 173.726354 
L 211.12619 173.735491 
L 210.340002 173.757032 
L 209.534554 173.78663 
L 208.732211 173.800662 
L 207.930267 173.816415 
L 207.128569 173.846307 
L 206.297596 173.869702 
L 205.584155 173.877879 
L 204.77474 173.903809 
L 203.999896 173.933886 
L 203.171425 173.941357 
L 202.368296 173.960613 
L 201.661449 173.990532 
L 200.822494 174.005627 
L 200.034995 174.02157 
L 199.234634 174.048875 
L 198.510052 174.070448 
L 197.676658 174.081281 
L 196.887206 174.105203 
L 196.108447 174.131402 
L 195.251124 174.139984 
L 194.516148 174.151254 
L 193.697148 174.182744 
L 192.97312 174.193145 
L 192.161245 174.205532 
L 191.364772 174.23205 
L 190.626143 174.248709 
L 189.772757 174.254356 
L 189.025069 174.274456 
L 188.20842 174.293811 
L 187.453531 174.3008 
L 186.658194 174.313788 
L 185.881343 174.334374 
L 184.9812 174.341058 
L 184.196756 174.339868 
L 183.444265 174.366241 
L 182.640397 174.378953 
L 181.817929 174.378928 
L 181.034433 174.38967 
L 180.181074 174.40511 
L 179.412475 174.401842 
L 178.613137 174.406295 
L 177.787097 174.421122 
L 176.948605 174.41984 
L 176.088738 174.419954 
L 175.360189 174.430224 
L 174.464405 174.437015 
L 173.690123 174.423568 
L 172.822708 174.43357 
L 172.010086 174.445086 
L 171.187812 174.437962 
L 170.388451 174.434897 
L 169.5501 174.445909 
L 168.749922 174.438498 
L 167.933252 174.43396 
L 167.061878 174.440765 
L 166.228426 174.443447 
L 165.465718 174.432299 
L 164.658029 174.434801 
L 163.886416 174.440896 
L 163.0051 174.432367 
L 162.09734 174.426512 
L 161.36538 174.437326 
L 160.517774 174.428712 
L 159.777875 174.416427 
L 158.838578 174.425508 
L 158.036687 174.426311 
L 157.154937 174.408657 
L 156.457293 174.416481 
L 155.627135 174.41883 
L 154.84131 174.407923 
L 153.949318 174.40193 
L 153.183983 174.408395 
L 152.33932 174.407521 
L 151.567939 174.397479 
L 150.704682 174.409364 
L 149.907515 174.408224 
L 149.130376 174.3948 
L 148.357081 174.405314 
L 147.53835 174.408257 
L 146.728606 174.39693 
L 145.936928 174.399062 
L 145.154224 174.408409 
L 144.397499 174.401989 
L 143.556673 174.400425 
L 142.789144 174.408613 
L 141.967852 174.413513 
L 141.221213 174.403408 
L 140.350055 174.415867 
L 139.595705 174.422453 
L 138.780933 174.415705 
L 138.021398 174.416999 
L 137.251219 174.429206 
L 136.475051 174.421017 
L 135.694222 174.422208 
L 134.920959 174.436917 
L 134.160225 174.436646 
L 133.294881 174.429416 
L 132.505358 174.438337 
L 131.745225 174.447522 
L 130.921021 174.441063 
L 130.167861 174.443469 
L 129.352181 174.454789 
L 128.529348 174.44621 
L 127.842296 174.449414 
L 127.058566 174.459474 
L 126.245881 174.458593 
L 125.425032 174.452423 
L 124.574911 174.461313 
L 123.840204 174.467146 
L 123.066784 174.463014 
L 122.239344 174.458428 
L 121.449432 174.468154 
L 120.587535 174.462045 
L 119.826008 174.461106 
L 119.033442 174.46661 
L 118.247719 174.463543 
L 117.420668 174.449622 
L 116.592782 174.458558 
L 115.791844 174.45726 
L 115.040193 174.448678 
L 114.202866 174.443924 
L 113.348762 174.447689 
L 112.529742 174.433994 
L 111.645937 174.42716 
L 110.88764 174.4272 
L 110.05047 174.422219 
L 109.144762 174.403695 
L 108.423295 174.407212 
L 107.620558 174.406044 
L 106.770202 174.386473 
L 105.926152 174.380003 
L 105.136334 174.382345 
L 104.321939 174.364584 
L 103.525986 174.354904 
L 102.601773 174.352138 
L 101.83356 174.334217 
L 101.082826 174.31899 
L 100.151468 174.321391 
L 99.308991 174.316238 
L 98.560017 174.294268 
L 97.732716 174.285728 
L 96.925293 174.288561 
L 96.134339 174.266161 
L 95.243047 174.252801 
L 94.393158 174.258395 
L 93.605863 174.243687 
L 92.782032 174.217649 
L 91.940521 174.224051 
L 91.146002 174.21216 
L 90.348323 174.199789 
L 89.48978 174.19305 
L 88.783084 174.201622 
L 87.933182 174.17936 
L 87.130818 174.171702 
L 86.384352 174.181909 
L 85.572257 174.176186 
L 84.699053 174.163884 
L 83.939325 174.18 
L 83.177353 174.184636 
L 82.327809 174.171581 
L 81.523607 174.188754 
L 80.811526 174.210026 
L 79.978636 174.21259 
L 79.254835 174.234719 
L 78.423143 174.272717 
L 77.632751 174.293605 
L 76.817575 174.320369 
L 76.019381 174.382523 
L 75.3191 174.440527 
L 74.394184 174.489934 
L 73.615261 174.588415 
L 72.940259 174.700196 
L 72.174661 174.810378 
z
" style="fill:url(#h9836eb9264);fill-opacity:0.1;stroke:#008000;stroke-opacity:0.1;"/>
    <path clip-path="url(#p1d37497644)" d="M 311.368318 157.47063 
L 311.368318 157.373007 
L 312.100064 157.247346 
L 312.947041 157.055484 
L 313.689 156.965954 
L 314.554002 156.849126 
L 315.300774 156.690559 
L 316.074612 156.603237 
L 316.836022 156.517482 
L 317.600492 156.350486 
L 318.396628 156.250475 
L 319.248687 156.082715 
L 320.005148 155.987457 
L 320.817443 155.871912 
L 321.576759 155.777385 
L 322.403104 155.666141 
L 323.211415 155.536007 
L 324.001489 155.401255 
L 324.784465 155.298121 
L 325.497457 155.166423 
L 326.388937 155.02439 
L 327.095562 154.928484 
L 327.900775 154.784845 
L 328.705017 154.631051 
L 329.524128 154.499184 
L 330.29898 154.358852 
L 331.11137 154.206085 
L 331.822074 154.072543 
L 332.677718 153.941128 
L 333.45422 153.793325 
L 334.234723 153.627602 
L 335.004166 153.48914 
L 335.858573 153.355303 
L 336.651543 153.212466 
L 337.408641 153.058227 
L 338.211723 152.905056 
L 339.042595 152.706878 
L 339.892593 152.558116 
L 340.659568 152.381686 
L 341.416797 152.258485 
L 342.214857 152.121016 
L 343.101535 151.916186 
L 343.933879 151.799471 
L 344.744485 151.634271 
L 345.525027 151.453613 
L 346.33456 151.345705 
L 347.207226 151.192175 
L 348.028435 151.002386 
L 348.779725 150.850925 
L 349.621006 150.654503 
L 350.399773 150.54676 
L 351.226855 150.414075 
L 352.143045 150.309021 
L 352.922932 150.173541 
L 353.693868 150.048093 
L 354.548442 149.967008 
L 355.375206 149.827822 
L 356.159832 149.731178 
L 356.965589 149.666376 
L 357.830468 149.558513 
L 358.591504 149.453921 
L 359.456801 149.351676 
L 360.216874 149.259853 
L 361.055731 149.200714 
L 361.908258 149.165941 
L 362.723588 149.123795 
L 363.550041 149.041268 
L 364.35323 148.997499 
L 365.18201 148.972798 
L 366.009753 148.912024 
L 366.782473 148.869975 
L 367.628881 148.866408 
L 368.466563 148.833649 
L 369.245261 148.766602 
L 370.110971 148.749208 
L 370.828695 148.710058 
L 371.712181 148.674371 
L 372.500427 148.664034 
L 373.19319 148.657534 
L 373.581818 156.58473 
L 373.09521 160.087442 
L 373.09521 159.689585 
L 373.09521 159.689585 
L 373.581818 154.521877 
L 373.19319 152.286712 
L 372.500427 152.269782 
L 371.712181 152.207594 
L 370.828695 152.205286 
L 370.110971 152.176803 
L 369.245261 152.24579 
L 368.466563 152.182485 
L 367.628881 152.208654 
L 366.782473 152.20289 
L 366.009753 152.174142 
L 365.18201 152.165684 
L 364.35323 152.180782 
L 363.550041 152.141272 
L 362.723588 152.163191 
L 361.908258 152.167112 
L 361.055731 152.163658 
L 360.216874 152.115788 
L 359.456801 152.10753 
L 358.591504 152.221854 
L 357.830468 152.194912 
L 356.965589 152.236968 
L 356.159832 152.271876 
L 355.375206 152.258384 
L 354.548442 152.317185 
L 353.693868 152.359771 
L 352.922932 152.395231 
L 352.143045 152.468341 
L 351.226855 152.535267 
L 350.399773 152.538049 
L 349.621006 152.613888 
L 348.779725 152.613645 
L 348.028435 152.802268 
L 347.207226 152.845665 
L 346.33456 152.95026 
L 345.525027 153.021122 
L 344.744485 153.098554 
L 343.933879 153.19145 
L 343.101535 153.29323 
L 342.214857 153.353502 
L 341.416797 153.476318 
L 340.659568 153.5466 
L 339.892593 153.651549 
L 339.042595 153.763431 
L 338.211723 153.818946 
L 337.408641 153.954968 
L 336.651543 154.088478 
L 335.858573 154.222003 
L 335.004166 154.269112 
L 334.234723 154.369465 
L 333.45422 154.477141 
L 332.677718 154.586449 
L 331.822074 154.699787 
L 331.11137 154.821399 
L 330.29898 154.881327 
L 329.524128 155.017219 
L 328.705017 155.17112 
L 327.900775 155.227551 
L 327.095562 155.393889 
L 326.388937 155.565069 
L 325.497457 155.662597 
L 324.784465 155.762505 
L 324.001489 155.92873 
L 323.211415 156.007376 
L 322.403104 156.133236 
L 321.576759 156.236197 
L 320.817443 156.368495 
L 320.005148 156.429654 
L 319.248687 156.522136 
L 318.396628 156.6009 
L 317.600492 156.759575 
L 316.836022 156.809578 
L 316.074612 156.980337 
L 315.300774 157.025792 
L 314.554002 157.045313 
L 313.689 157.18971 
L 312.947041 157.267944 
L 312.100064 157.263754 
L 311.368318 157.47063 
z
" style="fill:url(#h9836eb9264);fill-opacity:0.1;stroke:#008000;stroke-opacity:0.1;"/>
    <path clip-path="url(#p1d37497644)" d="M 245.977448 183.530917 
L 245.977448 183.836756 
L 245.199849 183.565096 
L 244.385154 183.271957 
L 243.573569 183.064191 
L 242.761031 182.844038 
L 241.928412 182.569729 
L 241.122515 182.346705 
L 240.321585 182.161575 
L 239.422555 181.894797 
L 238.680825 181.684599 
L 237.824172 181.517938 
L 236.971171 181.317805 
L 236.188422 181.141475 
L 235.315115 180.967947 
L 234.499534 180.796523 
L 233.695842 180.587298 
L 232.842752 180.427975 
L 232.05766 180.295933 
L 231.262912 180.143538 
L 230.397215 179.979196 
L 229.595611 179.863741 
L 228.800917 179.727386 
L 228.053138 179.579542 
L 227.123917 179.46439 
L 226.290073 179.358302 
L 225.574794 179.235182 
L 224.660137 179.12178 
L 223.799455 179.021691 
L 223.036011 178.910014 
L 222.216108 178.802676 
L 221.40663 178.726934 
L 220.564606 178.625996 
L 219.79441 178.521218 
L 218.985606 178.456618 
L 218.182741 178.384019 
L 217.359709 178.272405 
L 216.552529 178.229086 
L 215.749048 178.190032 
L 214.939476 178.099984 
L 214.151804 178.043267 
L 213.323103 177.996059 
L 212.574748 177.927338 
L 211.723058 177.879095 
L 210.971632 177.862545 
L 210.215461 177.803156 
L 209.434686 177.756357 
L 208.591055 177.741585 
L 207.769608 177.705971 
L 207.041937 177.656558 
L 206.273698 177.661193 
L 205.50168 177.653984 
L 204.639896 177.597019 
L 203.859568 177.594012 
L 203.104964 177.583551 
L 202.292182 177.554675 
L 201.477327 177.548257 
L 200.744718 177.548726 
L 199.938183 177.53315 
L 199.148007 177.519186 
L 198.338681 177.523943 
L 197.602483 177.517486 
L 196.797724 177.501471 
L 195.976424 177.519419 
L 195.229033 177.525165 
L 194.41319 177.492291 
L 193.600153 177.49507 
L 192.788787 177.501959 
L 192.012912 177.48988 
L 191.254895 177.482868 
L 190.438729 177.490447 
L 189.650705 177.485257 
L 188.871985 177.469829 
L 188.052315 177.472168 
L 187.219913 177.486348 
L 186.475528 177.466373 
L 185.691442 177.463512 
L 184.840333 177.496147 
L 183.994947 177.471104 
L 183.223676 177.436256 
L 182.385184 177.449681 
L 181.595956 177.456461 
L 180.780498 177.437728 
L 179.959929 177.437541 
L 179.140676 177.464453 
L 178.336087 177.453212 
L 177.468649 177.425422 
L 176.665467 177.455137 
L 175.885346 177.474258 
L 174.995391 177.436455 
L 174.17648 177.465744 
L 173.393402 177.491929 
L 172.56024 177.472115 
L 171.759877 177.470494 
L 170.886492 177.514262 
L 170.080673 177.516258 
L 169.30221 177.509297 
L 168.408398 177.53304 
L 167.595611 177.564231 
L 166.798384 177.563188 
L 165.982819 177.581457 
L 165.137719 177.564591 
L 164.611317 177.880841 
L 164.368867 177.926439 
L 163.952564 177.651281 
L 163.110559 177.687105 
L 162.307963 177.727752 
L 161.510728 177.747489 
L 160.629872 177.778323 
L 159.865396 177.849273 
L 159.121995 177.900827 
L 158.227021 177.935306 
L 157.386325 178.018508 
L 156.586802 178.085082 
L 155.783239 178.14038 
L 154.929204 178.260792 
L 154.110946 178.347721 
L 153.303834 178.482342 
L 152.605848 178.577963 
L 151.781934 178.714023 
L 150.926365 178.836914 
L 150.139589 178.9827 
L 149.36701 179.160141 
L 148.570942 179.369244 
L 147.795203 179.552634 
L 146.986488 179.812748 
L 146.261587 179.986649 
L 145.439984 180.216633 
L 144.607561 180.512221 
L 143.849959 180.792114 
L 143.091388 181.04078 
L 142.216128 181.309138 
L 141.413842 181.580439 
L 140.681261 181.90116 
L 139.870817 182.182263 
L 139.158447 182.357119 
L 138.316991 182.357119 
L 138.316991 181.877861 
L 138.316991 181.877861 
L 139.158447 181.651126 
L 139.870817 181.322482 
L 140.681261 181.046207 
L 141.413842 180.811476 
L 142.216128 180.543598 
L 143.091388 180.28895 
L 143.849959 180.027578 
L 144.607561 179.767942 
L 145.439984 179.53216 
L 146.261587 179.334971 
L 146.986488 179.100426 
L 147.795203 178.933576 
L 148.570942 178.720441 
L 149.36701 178.568925 
L 150.139589 178.411205 
L 150.926365 178.257207 
L 151.781934 178.136903 
L 152.605848 178.062989 
L 153.303834 177.894528 
L 154.110946 177.805027 
L 154.929204 177.711167 
L 155.783239 177.635144 
L 156.586802 177.548851 
L 157.386325 177.490687 
L 158.227021 177.441743 
L 159.121995 177.366813 
L 159.865396 177.312287 
L 160.629872 177.296465 
L 161.510728 177.219357 
L 162.307963 177.197148 
L 163.110559 177.200962 
L 163.952564 177.128279 
L 164.368867 176.5201 
L 164.611317 177.28474 
L 165.137719 177.093871 
L 165.982819 177.081908 
L 166.798384 177.037335 
L 167.595611 177.017805 
L 168.408398 177.035801 
L 169.30221 176.979193 
L 170.080673 176.973061 
L 170.886492 176.977901 
L 171.759877 176.950059 
L 172.56024 176.931503 
L 173.393402 176.964991 
L 174.17648 176.925406 
L 174.995391 176.900536 
L 175.885346 176.916728 
L 176.665467 176.916833 
L 177.468649 176.887365 
L 178.336087 176.898177 
L 179.140676 176.90951 
L 179.959929 176.874409 
L 180.780498 176.877835 
L 181.595956 176.908455 
L 182.385184 176.873507 
L 183.223676 176.885532 
L 183.994947 176.930071 
L 184.840333 176.876098 
L 185.691442 176.867174 
L 186.475528 176.893586 
L 187.219913 176.87336 
L 188.052315 176.857718 
L 188.871985 176.871852 
L 189.650705 176.8796 
L 190.438729 176.843998 
L 191.254895 176.852201 
L 192.012912 176.852325 
L 192.788787 176.818636 
L 193.600153 176.814755 
L 194.41319 176.856923 
L 195.229033 176.782902 
L 195.976424 176.785486 
L 196.797724 176.787996 
L 197.602483 176.757667 
L 198.338681 176.74292 
L 199.148007 176.759529 
L 199.938183 176.728789 
L 200.744718 176.708216 
L 201.477327 176.713588 
L 202.292182 176.712343 
L 203.104964 176.689665 
L 203.859568 176.693659 
L 204.639896 176.723814 
L 205.50168 176.671606 
L 206.273698 176.678441 
L 207.041937 176.709498 
L 207.769608 176.68048 
L 208.591055 176.709526 
L 209.434686 176.73643 
L 210.215461 176.730126 
L 210.971632 176.750323 
L 211.723058 176.788712 
L 212.574748 176.798233 
L 213.323103 176.825582 
L 214.151804 176.874438 
L 214.939476 176.940865 
L 215.749048 176.938759 
L 216.552529 176.987856 
L 217.359709 177.052023 
L 218.182741 177.089244 
L 218.985606 177.14726 
L 219.79441 177.248372 
L 220.564606 177.281513 
L 221.40663 177.368688 
L 222.216108 177.454905 
L 223.036011 177.535201 
L 223.799455 177.625964 
L 224.660137 177.755563 
L 225.574794 177.82238 
L 226.290073 177.928327 
L 227.123917 178.050572 
L 228.053138 178.186725 
L 228.800917 178.308213 
L 229.595611 178.448236 
L 230.397215 178.621524 
L 231.262912 178.76394 
L 232.05766 178.920402 
L 232.842752 179.132636 
L 233.695842 179.305937 
L 234.499534 179.519849 
L 235.315115 179.775045 
L 236.188422 179.95946 
L 236.971171 180.19111 
L 237.824172 180.45448 
L 238.680825 180.722988 
L 239.422555 180.991966 
L 240.321585 181.279545 
L 241.122515 181.602287 
L 241.928412 181.902771 
L 242.761031 182.214487 
L 243.573569 182.569833 
L 244.385154 182.91853 
L 245.199849 183.241058 
L 245.977448 183.530917 
z
" style="fill:url(#h9836eb9264);fill-opacity:0.1;stroke:#008000;stroke-opacity:0.1;"/>
   </g>
   <g id="matplotlib.axis_1">
    <g id="xtick_1">
     <g id="line2d_1">
      <defs>
       <path d="M 0 0 
L 0 3.5 
" id="m00cecc0304" style="stroke:#000000;stroke-width:0.8;"/>
      </defs>
      <g>
       <use style="stroke:#000000;stroke-width:0.8;" x="59.687279" xlink:href="#m00cecc0304" y="252"/>
      </g>
     </g>
     <g id="text_1">
      <!-- 0.0 -->
      <g transform="translate(51.735717 266.598437)scale(0.1 -0.1)">
       <defs>
        <path d="M 31.78125 66.40625 
Q 24.171875 66.40625 20.328125 58.90625 
Q 16.5 51.421875 16.5 36.375 
Q 16.5 21.390625 20.328125 13.890625 
Q 24.171875 6.390625 31.78125 6.390625 
Q 39.453125 6.390625 43.28125 13.890625 
Q 47.125 21.390625 47.125 36.375 
Q 47.125 51.421875 43.28125 58.90625 
Q 39.453125 66.40625 31.78125 66.40625 
z
M 31.78125 74.21875 
Q 44.046875 74.21875 50.515625 64.515625 
Q 56.984375 54.828125 56.984375 36.375 
Q 56.984375 17.96875 50.515625 8.265625 
Q 44.046875 -1.421875 31.78125 -1.421875 
Q 19.53125 -1.421875 13.0625 8.265625 
Q 6.59375 17.96875 6.59375 36.375 
Q 6.59375 54.828125 13.0625 64.515625 
Q 19.53125 74.21875 31.78125 74.21875 
z
" id="DejaVuSans-48"/>
        <path d="M 10.6875 12.40625 
L 21 12.40625 
L 21 0 
L 10.6875 0 
z
" id="DejaVuSans-46"/>
       </defs>
       <use xlink:href="#DejaVuSans-48"/>
       <use x="63.623047" xlink:href="#DejaVuSans-46"/>
       <use x="95.410156" xlink:href="#DejaVuSans-48"/>
      </g>
     </g>
    </g>
    <g id="xtick_2">
     <g id="line2d_2">
      <g>
       <use style="stroke:#000000;stroke-width:0.8;" x="111.918057" xlink:href="#m00cecc0304" y="252"/>
      </g>
     </g>
     <g id="text_2">
      <!-- 0.2 -->
      <g transform="translate(103.966494 266.598437)scale(0.1 -0.1)">
       <defs>
        <path d="M 19.1875 8.296875 
L 53.609375 8.296875 
L 53.609375 0 
L 7.328125 0 
L 7.328125 8.296875 
Q 12.9375 14.109375 22.625 23.890625 
Q 32.328125 33.6875 34.8125 36.53125 
Q 39.546875 41.84375 41.421875 45.53125 
Q 43.3125 49.21875 43.3125 52.78125 
Q 43.3125 58.59375 39.234375 62.25 
Q 35.15625 65.921875 28.609375 65.921875 
Q 23.96875 65.921875 18.8125 64.3125 
Q 13.671875 62.703125 7.8125 59.421875 
L 7.8125 69.390625 
Q 13.765625 71.78125 18.9375 73 
Q 24.125 74.21875 28.421875 74.21875 
Q 39.75 74.21875 46.484375 68.546875 
Q 53.21875 62.890625 53.21875 53.421875 
Q 53.21875 48.921875 51.53125 44.890625 
Q 49.859375 40.875 45.40625 35.40625 
Q 44.1875 33.984375 37.640625 27.21875 
Q 31.109375 20.453125 19.1875 8.296875 
z
" id="DejaVuSans-50"/>
       </defs>
       <use xlink:href="#DejaVuSans-48"/>
       <use x="63.623047" xlink:href="#DejaVuSans-46"/>
       <use x="95.410156" xlink:href="#DejaVuSans-50"/>
      </g>
     </g>
    </g>
    <g id="xtick_3">
     <g id="line2d_3">
      <g>
       <use style="stroke:#000000;stroke-width:0.8;" x="164.148834" xlink:href="#m00cecc0304" y="252"/>
      </g>
     </g>
     <g id="text_3">
      <!-- 0.4 -->
      <g transform="translate(156.197272 266.598437)scale(0.1 -0.1)">
       <defs>
        <path d="M 37.796875 64.3125 
L 12.890625 25.390625 
L 37.796875 25.390625 
z
M 35.203125 72.90625 
L 47.609375 72.90625 
L 47.609375 25.390625 
L 58.015625 25.390625 
L 58.015625 17.1875 
L 47.609375 17.1875 
L 47.609375 0 
L 37.796875 0 
L 37.796875 17.1875 
L 4.890625 17.1875 
L 4.890625 26.703125 
z
" id="DejaVuSans-52"/>
       </defs>
       <use xlink:href="#DejaVuSans-48"/>
       <use x="63.623047" xlink:href="#DejaVuSans-46"/>
       <use x="95.410156" xlink:href="#DejaVuSans-52"/>
      </g>
     </g>
    </g>
    <g id="xtick_4">
     <g id="line2d_4">
      <g>
       <use style="stroke:#000000;stroke-width:0.8;" x="216.379612" xlink:href="#m00cecc0304" y="252"/>
      </g>
     </g>
     <g id="text_4">
      <!-- 0.6 -->
      <g transform="translate(208.428049 266.598437)scale(0.1 -0.1)">
       <defs>
        <path d="M 33.015625 40.375 
Q 26.375 40.375 22.484375 35.828125 
Q 18.609375 31.296875 18.609375 23.390625 
Q 18.609375 15.53125 22.484375 10.953125 
Q 26.375 6.390625 33.015625 6.390625 
Q 39.65625 6.390625 43.53125 10.953125 
Q 47.40625 15.53125 47.40625 23.390625 
Q 47.40625 31.296875 43.53125 35.828125 
Q 39.65625 40.375 33.015625 40.375 
z
M 52.59375 71.296875 
L 52.59375 62.3125 
Q 48.875 64.0625 45.09375 64.984375 
Q 41.3125 65.921875 37.59375 65.921875 
Q 27.828125 65.921875 22.671875 59.328125 
Q 17.53125 52.734375 16.796875 39.40625 
Q 19.671875 43.65625 24.015625 45.921875 
Q 28.375 48.1875 33.59375 48.1875 
Q 44.578125 48.1875 50.953125 41.515625 
Q 57.328125 34.859375 57.328125 23.390625 
Q 57.328125 12.15625 50.6875 5.359375 
Q 44.046875 -1.421875 33.015625 -1.421875 
Q 20.359375 -1.421875 13.671875 8.265625 
Q 6.984375 17.96875 6.984375 36.375 
Q 6.984375 53.65625 15.1875 63.9375 
Q 23.390625 74.21875 37.203125 74.21875 
Q 40.921875 74.21875 44.703125 73.484375 
Q 48.484375 72.75 52.59375 71.296875 
z
" id="DejaVuSans-54"/>
       </defs>
       <use xlink:href="#DejaVuSans-48"/>
       <use x="63.623047" xlink:href="#DejaVuSans-46"/>
       <use x="95.410156" xlink:href="#DejaVuSans-54"/>
      </g>
     </g>
    </g>
    <g id="xtick_5">
     <g id="line2d_5">
      <g>
       <use style="stroke:#000000;stroke-width:0.8;" x="268.610389" xlink:href="#m00cecc0304" y="252"/>
      </g>
     </g>
     <g id="text_5">
      <!-- 0.8 -->
      <g transform="translate(260.658827 266.598437)scale(0.1 -0.1)">
       <defs>
        <path d="M 31.78125 34.625 
Q 24.75 34.625 20.71875 30.859375 
Q 16.703125 27.09375 16.703125 20.515625 
Q 16.703125 13.921875 20.71875 10.15625 
Q 24.75 6.390625 31.78125 6.390625 
Q 38.8125 6.390625 42.859375 10.171875 
Q 46.921875 13.96875 46.921875 20.515625 
Q 46.921875 27.09375 42.890625 30.859375 
Q 38.875 34.625 31.78125 34.625 
z
M 21.921875 38.8125 
Q 15.578125 40.375 12.03125 44.71875 
Q 8.5 49.078125 8.5 55.328125 
Q 8.5 64.0625 14.71875 69.140625 
Q 20.953125 74.21875 31.78125 74.21875 
Q 42.671875 74.21875 48.875 69.140625 
Q 55.078125 64.0625 55.078125 55.328125 
Q 55.078125 49.078125 51.53125 44.71875 
Q 48 40.375 41.703125 38.8125 
Q 48.828125 37.15625 52.796875 32.3125 
Q 56.78125 27.484375 56.78125 20.515625 
Q 56.78125 9.90625 50.3125 4.234375 
Q 43.84375 -1.421875 31.78125 -1.421875 
Q 19.734375 -1.421875 13.25 4.234375 
Q 6.78125 9.90625 6.78125 20.515625 
Q 6.78125 27.484375 10.78125 32.3125 
Q 14.796875 37.15625 21.921875 38.8125 
z
M 18.3125 54.390625 
Q 18.3125 48.734375 21.84375 45.5625 
Q 25.390625 42.390625 31.78125 42.390625 
Q 38.140625 42.390625 41.71875 45.5625 
Q 45.3125 48.734375 45.3125 54.390625 
Q 45.3125 60.0625 41.71875 63.234375 
Q 38.140625 66.40625 31.78125 66.40625 
Q 25.390625 66.40625 21.84375 63.234375 
Q 18.3125 60.0625 18.3125 54.390625 
z
" id="DejaVuSans-56"/>
       </defs>
       <use xlink:href="#DejaVuSans-48"/>
       <use x="63.623047" xlink:href="#DejaVuSans-46"/>
       <use x="95.410156" xlink:href="#DejaVuSans-56"/>
      </g>
     </g>
    </g>
    <g id="xtick_6">
     <g id="line2d_6">
      <g>
       <use style="stroke:#000000;stroke-width:0.8;" x="320.841167" xlink:href="#m00cecc0304" y="252"/>
      </g>
     </g>
     <g id="text_6">
      <!-- 1.0 -->
      <g transform="translate(312.889604 266.598437)scale(0.1 -0.1)">
       <defs>
        <path d="M 12.40625 8.296875 
L 28.515625 8.296875 
L 28.515625 63.921875 
L 10.984375 60.40625 
L 10.984375 69.390625 
L 28.421875 72.90625 
L 38.28125 72.90625 
L 38.28125 8.296875 
L 54.390625 8.296875 
L 54.390625 0 
L 12.40625 0 
z
" id="DejaVuSans-49"/>
       </defs>
       <use xlink:href="#DejaVuSans-49"/>
       <use x="63.623047" xlink:href="#DejaVuSans-46"/>
       <use x="95.410156" xlink:href="#DejaVuSans-48"/>
      </g>
     </g>
    </g>
    <g id="xtick_7">
     <g id="line2d_7">
      <g>
       <use style="stroke:#000000;stroke-width:0.8;" x="373.071944" xlink:href="#m00cecc0304" y="252"/>
      </g>
     </g>
     <g id="text_7">
      <!-- 1.2 -->
      <g transform="translate(365.120381 266.598437)scale(0.1 -0.1)">
       <use xlink:href="#DejaVuSans-49"/>
       <use x="63.623047" xlink:href="#DejaVuSans-46"/>
       <use x="95.410156" xlink:href="#DejaVuSans-50"/>
      </g>
     </g>
    </g>
    <g id="text_8">
     <!-- $U_{RHE}$ / [V] -->
     <g transform="translate(198.1 280.276563)scale(0.1 -0.1)">
      <defs>
       <path d="M 15.484375 72.90625 
L 25.390625 72.90625 
L 16.796875 28.609375 
Q 16.265625 25.640625 16.046875 23.703125 
Q 15.828125 21.78125 15.828125 20.3125 
Q 15.828125 13.578125 19.578125 10.078125 
Q 23.34375 6.59375 30.609375 6.59375 
Q 40.046875 6.59375 45.28125 11.765625 
Q 50.53125 16.9375 52.78125 28.609375 
L 61.375 72.90625 
L 71.296875 72.90625 
L 62.5 27.390625 
Q 59.625 12.640625 51.5625 5.609375 
Q 43.5 -1.421875 29.5 -1.421875 
Q 18.5625 -1.421875 12.1875 4.078125 
Q 5.8125 9.578125 5.8125 19 
Q 5.8125 20.703125 6.046875 22.828125 
Q 6.296875 24.953125 6.78125 27.390625 
z
" id="DejaVuSans-Oblique-85"/>
       <path d="M 25.203125 64.796875 
L 20.21875 38.921875 
L 32.90625 38.921875 
Q 40.375 38.921875 44.984375 43.046875 
Q 49.609375 47.171875 49.609375 53.8125 
Q 49.609375 59.125 46.5 61.953125 
Q 43.40625 64.796875 37.59375 64.796875 
z
M 43.3125 35.015625 
Q 46.4375 34.28125 48.515625 31.390625 
Q 50.59375 28.515625 53.328125 19.921875 
L 59.515625 0 
L 49.125 0 
L 43.40625 18.703125 
Q 41.21875 25.921875 38.328125 28.359375 
Q 35.453125 30.8125 29.5 30.8125 
L 18.609375 30.8125 
L 12.59375 0 
L 2.6875 0 
L 16.890625 72.90625 
L 39.109375 72.90625 
Q 49.21875 72.90625 54.609375 68.328125 
Q 60.015625 63.765625 60.015625 55.171875 
Q 60.015625 47.5625 55.421875 41.984375 
Q 50.828125 36.421875 43.3125 35.015625 
z
" id="DejaVuSans-Oblique-82"/>
       <path d="M 16.890625 72.90625 
L 26.8125 72.90625 
L 21 43.015625 
L 56.78125 43.015625 
L 62.59375 72.90625 
L 72.515625 72.90625 
L 58.296875 0 
L 48.390625 0 
L 55.171875 34.71875 
L 19.390625 34.71875 
L 12.59375 0 
L 2.6875 0 
z
" id="DejaVuSans-Oblique-72"/>
       <path d="M 16.890625 72.90625 
L 62.984375 72.90625 
L 61.375 64.59375 
L 25.09375 64.59375 
L 20.90625 43.015625 
L 55.71875 43.015625 
L 54.109375 34.71875 
L 19.28125 34.71875 
L 14.203125 8.296875 
L 51.3125 8.296875 
L 49.703125 0 
L 2.6875 0 
z
" id="DejaVuSans-Oblique-69"/>
       <path id="DejaVuSans-32"/>
       <path d="M 25.390625 72.90625 
L 33.6875 72.90625 
L 8.296875 -9.28125 
L 0 -9.28125 
z
" id="DejaVuSans-47"/>
       <path d="M 8.59375 75.984375 
L 29.296875 75.984375 
L 29.296875 69 
L 17.578125 69 
L 17.578125 -6.203125 
L 29.296875 -6.203125 
L 29.296875 -13.1875 
L 8.59375 -13.1875 
z
" id="DejaVuSans-91"/>
       <path d="M 28.609375 0 
L 0.78125 72.90625 
L 11.078125 72.90625 
L 34.1875 11.53125 
L 57.328125 72.90625 
L 67.578125 72.90625 
L 39.796875 0 
z
" id="DejaVuSans-86"/>
       <path d="M 30.421875 75.984375 
L 30.421875 -13.1875 
L 9.71875 -13.1875 
L 9.71875 -6.203125 
L 21.390625 -6.203125 
L 21.390625 69 
L 9.71875 69 
L 9.71875 75.984375 
z
" id="DejaVuSans-93"/>
      </defs>
      <use transform="translate(0 0.015625)" xlink:href="#DejaVuSans-Oblique-85"/>
      <use transform="translate(73.193359 -16.390625)scale(0.7)" xlink:href="#DejaVuSans-Oblique-82"/>
      <use transform="translate(121.831055 -16.390625)scale(0.7)" xlink:href="#DejaVuSans-Oblique-72"/>
      <use transform="translate(174.467773 -16.390625)scale(0.7)" xlink:href="#DejaVuSans-Oblique-69"/>
      <use transform="translate(221.430664 0.015625)" xlink:href="#DejaVuSans-32"/>
      <use transform="translate(253.217773 0.015625)" xlink:href="#DejaVuSans-47"/>
      <use transform="translate(286.90918 0.015625)" xlink:href="#DejaVuSans-32"/>
      <use transform="translate(318.696289 0.015625)" xlink:href="#DejaVuSans-91"/>
      <use transform="translate(357.709961 0.015625)" xlink:href="#DejaVuSans-86"/>
      <use transform="translate(426.118164 0.015625)" xlink:href="#DejaVuSans-93"/>
     </g>
    </g>
   </g>
   <g id="matplotlib.axis_2">
    <g id="ytick_1">
     <g id="line2d_8">
      <defs>
       <path d="M 0 0 
L -3.5 0 
" id="ma36ccbaf88" style="stroke:#000000;stroke-width:0.8;"/>
      </defs>
      <g>
       <use style="stroke:#000000;stroke-width:0.8;" x="54" xlink:href="#ma36ccbaf88" y="219.722035"/>
      </g>
     </g>
     <g id="text_9">
      <!-- 0.01 -->
      <g transform="translate(16.354687 223.521254)scale(0.1 -0.1)">
       <defs>
        <path d="M 10.59375 35.5 
L 73.1875 35.5 
L 73.1875 27.203125 
L 10.59375 27.203125 
z
" id="DejaVuSans-8722"/>
       </defs>
       <use xlink:href="#DejaVuSans-8722"/>
       <use x="83.789062" xlink:href="#DejaVuSans-48"/>
       <use x="147.412109" xlink:href="#DejaVuSans-46"/>
       <use x="179.199219" xlink:href="#DejaVuSans-48"/>
       <use x="242.822266" xlink:href="#DejaVuSans-49"/>
      </g>
     </g>
    </g>
    <g id="ytick_2">
     <g id="line2d_9">
      <g>
       <use style="stroke:#000000;stroke-width:0.8;" x="54" xlink:href="#ma36ccbaf88" y="174.972167"/>
      </g>
     </g>
     <g id="text_10">
      <!-- 0.00 -->
      <g transform="translate(24.734375 178.771386)scale(0.1 -0.1)">
       <use xlink:href="#DejaVuSans-48"/>
       <use x="63.623047" xlink:href="#DejaVuSans-46"/>
       <use x="95.410156" xlink:href="#DejaVuSans-48"/>
       <use x="159.033203" xlink:href="#DejaVuSans-48"/>
      </g>
     </g>
    </g>
    <g id="ytick_3">
     <g id="line2d_10">
      <g>
       <use style="stroke:#000000;stroke-width:0.8;" x="54" xlink:href="#ma36ccbaf88" y="130.2223"/>
      </g>
     </g>
     <g id="text_11">
      <!-- 0.01 -->
      <g transform="translate(24.734375 134.021519)scale(0.1 -0.1)">
       <use xlink:href="#DejaVuSans-48"/>
       <use x="63.623047" xlink:href="#DejaVuSans-46"/>
       <use x="95.410156" xlink:href="#DejaVuSans-48"/>
       <use x="159.033203" xlink:href="#DejaVuSans-49"/>
      </g>
     </g>
    </g>
    <g id="ytick_4">
     <g id="line2d_11">
      <g>
       <use style="stroke:#000000;stroke-width:0.8;" x="54" xlink:href="#ma36ccbaf88" y="85.472432"/>
      </g>
     </g>
     <g id="text_12">
      <!-- 0.02 -->
      <g transform="translate(24.734375 89.271651)scale(0.1 -0.1)">
       <use xlink:href="#DejaVuSans-48"/>
       <use x="63.623047" xlink:href="#DejaVuSans-46"/>
       <use x="95.410156" xlink:href="#DejaVuSans-48"/>
       <use x="159.033203" xlink:href="#DejaVuSans-50"/>
      </g>
     </g>
    </g>
    <g id="ytick_5">
     <g id="line2d_12">
      <g>
       <use style="stroke:#000000;stroke-width:0.8;" x="54" xlink:href="#ma36ccbaf88" y="40.722565"/>
      </g>
     </g>
     <g id="text_13">
      <!-- 0.03 -->
      <g transform="translate(24.734375 44.521783)scale(0.1 -0.1)">
       <defs>
        <path d="M 40.578125 39.3125 
Q 47.65625 37.796875 51.625 33 
Q 55.609375 28.21875 55.609375 21.1875 
Q 55.609375 10.40625 48.1875 4.484375 
Q 40.765625 -1.421875 27.09375 -1.421875 
Q 22.515625 -1.421875 17.65625 -0.515625 
Q 12.796875 0.390625 7.625 2.203125 
L 7.625 11.71875 
Q 11.71875 9.328125 16.59375 8.109375 
Q 21.484375 6.890625 26.8125 6.890625 
Q 36.078125 6.890625 40.9375 10.546875 
Q 45.796875 14.203125 45.796875 21.1875 
Q 45.796875 27.640625 41.28125 31.265625 
Q 36.765625 34.90625 28.71875 34.90625 
L 20.21875 34.90625 
L 20.21875 43.015625 
L 29.109375 43.015625 
Q 36.375 43.015625 40.234375 45.921875 
Q 44.09375 48.828125 44.09375 54.296875 
Q 44.09375 59.90625 40.109375 62.90625 
Q 36.140625 65.921875 28.71875 65.921875 
Q 24.65625 65.921875 20.015625 65.03125 
Q 15.375 64.15625 9.8125 62.3125 
L 9.8125 71.09375 
Q 15.4375 72.65625 20.34375 73.4375 
Q 25.25 74.21875 29.59375 74.21875 
Q 40.828125 74.21875 47.359375 69.109375 
Q 53.90625 64.015625 53.90625 55.328125 
Q 53.90625 49.265625 50.4375 45.09375 
Q 46.96875 40.921875 40.578125 39.3125 
z
" id="DejaVuSans-51"/>
       </defs>
       <use xlink:href="#DejaVuSans-48"/>
       <use x="63.623047" xlink:href="#DejaVuSans-46"/>
       <use x="95.410156" xlink:href="#DejaVuSans-48"/>
       <use x="159.033203" xlink:href="#DejaVuSans-51"/>
      </g>
     </g>
    </g>
    <g id="text_14">
     <!-- J / [mA cm$^{-2}$] -->
     <g transform="translate(10.254687 176.38)rotate(-90)scale(0.1 -0.1)">
      <defs>
       <path d="M 9.8125 72.90625 
L 19.671875 72.90625 
L 19.671875 5.078125 
Q 19.671875 -8.109375 14.671875 -14.0625 
Q 9.671875 -20.015625 -1.421875 -20.015625 
L -5.171875 -20.015625 
L -5.171875 -11.71875 
L -2.09375 -11.71875 
Q 4.4375 -11.71875 7.125 -8.046875 
Q 9.8125 -4.390625 9.8125 5.078125 
z
" id="DejaVuSans-74"/>
       <path d="M 52 44.1875 
Q 55.375 50.25 60.0625 53.125 
Q 64.75 56 71.09375 56 
Q 79.640625 56 84.28125 50.015625 
Q 88.921875 44.046875 88.921875 33.015625 
L 88.921875 0 
L 79.890625 0 
L 79.890625 32.71875 
Q 79.890625 40.578125 77.09375 44.375 
Q 74.3125 48.1875 68.609375 48.1875 
Q 61.625 48.1875 57.5625 43.546875 
Q 53.515625 38.921875 53.515625 30.90625 
L 53.515625 0 
L 44.484375 0 
L 44.484375 32.71875 
Q 44.484375 40.625 41.703125 44.40625 
Q 38.921875 48.1875 33.109375 48.1875 
Q 26.21875 48.1875 22.15625 43.53125 
Q 18.109375 38.875 18.109375 30.90625 
L 18.109375 0 
L 9.078125 0 
L 9.078125 54.6875 
L 18.109375 54.6875 
L 18.109375 46.1875 
Q 21.1875 51.21875 25.484375 53.609375 
Q 29.78125 56 35.6875 56 
Q 41.65625 56 45.828125 52.96875 
Q 50 49.953125 52 44.1875 
z
" id="DejaVuSans-109"/>
       <path d="M 34.1875 63.1875 
L 20.796875 26.90625 
L 47.609375 26.90625 
z
M 28.609375 72.90625 
L 39.796875 72.90625 
L 67.578125 0 
L 57.328125 0 
L 50.6875 18.703125 
L 17.828125 18.703125 
L 11.1875 0 
L 0.78125 0 
z
" id="DejaVuSans-65"/>
       <path d="M 48.78125 52.59375 
L 48.78125 44.1875 
Q 44.96875 46.296875 41.140625 47.34375 
Q 37.3125 48.390625 33.40625 48.390625 
Q 24.65625 48.390625 19.8125 42.84375 
Q 14.984375 37.3125 14.984375 27.296875 
Q 14.984375 17.28125 19.8125 11.734375 
Q 24.65625 6.203125 33.40625 6.203125 
Q 37.3125 6.203125 41.140625 7.25 
Q 44.96875 8.296875 48.78125 10.40625 
L 48.78125 2.09375 
Q 45.015625 0.34375 40.984375 -0.53125 
Q 36.96875 -1.421875 32.421875 -1.421875 
Q 20.0625 -1.421875 12.78125 6.34375 
Q 5.515625 14.109375 5.515625 27.296875 
Q 5.515625 40.671875 12.859375 48.328125 
Q 20.21875 56 33.015625 56 
Q 37.15625 56 41.109375 55.140625 
Q 45.0625 54.296875 48.78125 52.59375 
z
" id="DejaVuSans-99"/>
      </defs>
      <use transform="translate(0 0.765625)" xlink:href="#DejaVuSans-74"/>
      <use transform="translate(29.492188 0.765625)" xlink:href="#DejaVuSans-32"/>
      <use transform="translate(61.279297 0.765625)" xlink:href="#DejaVuSans-47"/>
      <use transform="translate(94.970703 0.765625)" xlink:href="#DejaVuSans-32"/>
      <use transform="translate(126.757812 0.765625)" xlink:href="#DejaVuSans-91"/>
      <use transform="translate(165.771484 0.765625)" xlink:href="#DejaVuSans-109"/>
      <use transform="translate(263.183594 0.765625)" xlink:href="#DejaVuSans-65"/>
      <use transform="translate(331.591797 0.765625)" xlink:href="#DejaVuSans-32"/>
      <use transform="translate(363.378906 0.765625)" xlink:href="#DejaVuSans-99"/>
      <use transform="translate(418.359375 0.765625)" xlink:href="#DejaVuSans-109"/>
      <use transform="translate(516.728516 39.046875)scale(0.7)" xlink:href="#DejaVuSans-8722"/>
      <use transform="translate(575.380859 39.046875)scale(0.7)" xlink:href="#DejaVuSans-50"/>
      <use transform="translate(622.651367 0.765625)" xlink:href="#DejaVuSans-93"/>
     </g>
    </g>
   </g>
   <g id="line2d_13">
    <path clip-path="url(#p1d37497644)" d="M 137.764303 174.95763 
L 128.761017 174.966657 
L 121.276658 174.957058 
L 115.591991 174.991682 
L 97.413956 175.31474 
L 83.939588 175.895571 
L 79.087143 176.239213 
L 72.561304 176.958709 
L 69.55131 177.525353 
L 69.218182 179.266629 
L 69.218182 176.561332 
L 69.743707 175.695136 
L 70.50208 175.226528 
L 72.174661 174.810378 
L 75.3191 174.440527 
L 78.423143 174.272717 
L 82.327809 174.171581 
L 91.940521 174.224051 
L 97.732716 174.285728 
L 124.574911 174.461313 
L 138.780933 174.415705 
L 150.704682 174.409364 
L 157.154937 174.408657 
L 163.886416 174.440896 
L 198.510052 174.070448 
L 229.794062 173.050292 
L 232.362882 172.805329 
L 234.820041 172.376919 
L 236.441951 171.845179 
L 237.281935 171.391117 
L 238.040333 170.686268 
L 238.860592 169.478967 
L 239.747213 167.316104 
L 243.778899 150.278537 
L 245.302704 146.82895 
L 246.152371 144.146892 
L 246.898483 139.676585 
L 247.78452 138.553598 
L 248.510965 140.25542 
L 249.309834 141.621955 
L 250.900467 149.135746 
L 251.687665 152.827113 
L 252.516839 153.462169 
L 253.239584 146.225254 
L 254.788026 103.488726 
L 255.664891 93.125475 
L 256.463821 75.548027 
L 257.215668 64.319896 
L 258.000487 70.028583 
L 258.809622 72.591002 
L 259.61764 100.374677 
L 260.390845 109.444281 
L 261.176337 111.502333 
L 261.908408 93.886444 
L 262.802674 102.643054 
L 263.556887 130.64202 
L 264.339612 132.908117 
L 265.093827 124.813807 
L 265.902842 123.44953 
L 266.691656 127.968175 
L 267.526964 121.808046 
L 268.199533 106.382423 
L 269.082723 91.352211 
L 269.888976 86.009892 
L 270.688857 102.06335 
L 271.446948 120.59238 
L 272.245169 127.670942 
L 273.03011 125.776357 
L 273.835802 113.556323 
L 275.411215 68.428787 
L 276.218567 69.216065 
L 277.077126 90.358697 
L 277.853208 82.996157 
L 278.609363 44.443636 
L 279.481761 44.767957 
L 280.26476 86.360711 
L 281.12 114.732044 
L 281.957523 132.417624 
L 283.524352 144.51821 
L 284.384846 148.944486 
L 285.174213 151.441431 
L 286.784501 154.874884 
L 289.338588 158.558945 
L 290.093634 158.7999 
L 290.928115 158.781305 
L 291.724399 158.907182 
L 295.039071 158.79303 
L 295.821243 158.679419 
L 296.676757 158.672613 
L 297.498248 158.51652 
L 298.306138 158.50296 
L 299.080819 158.37445 
L 299.958215 158.424853 
L 302.359337 158.117045 
L 305.614801 157.888113 
L 308.114814 157.591349 
L 313.689 157.18971 
L 315.300774 157.025792 
L 316.074612 156.980337 
L 316.836022 156.809578 
L 318.396628 156.6009 
L 322.403104 156.133236 
L 335.004166 154.269112 
L 336.651543 154.088478 
L 339.042595 153.763431 
L 345.525027 153.021122 
L 348.028435 152.802268 
L 348.779725 152.613645 
L 351.226855 152.535267 
L 356.159832 152.271876 
L 361.055731 152.163658 
L 373.19319 152.286712 
L 373.581818 154.521877 
L 373.09521 159.689585 
L 372.280107 162.871628 
L 371.544442 165.130644 
L 369.8085 168.271448 
L 369.042342 169.336885 
L 368.213719 170.270597 
L 366.513485 171.692696 
L 364.92506 172.750089 
L 363.274375 173.600413 
L 358.383448 175.250205 
L 353.456837 176.316617 
L 342.018501 178.19282 
L 338.86326 178.688701 
L 337.247721 179.029447 
L 335.71715 179.259938 
L 325.425083 181.404743 
L 323.865994 181.822234 
L 319.887205 182.924483 
L 316.711472 183.97594 
L 315.149346 184.448596 
L 309.476418 186.575645 
L 302.132293 189.966409 
L 285.762086 198.906829 
L 281.689051 200.543767 
L 278.443447 201.34941 
L 276.888751 201.610205 
L 275.26219 201.689595 
L 273.666109 201.55069 
L 272.10156 201.279536 
L 270.489577 200.752268 
L 268.945862 200.113296 
L 266.595338 198.880513 
L 263.428742 196.604136 
L 251.54705 187.139956 
L 249.146259 185.593891 
L 246.735646 184.215709 
L 245.977448 183.530917 
L 242.761031 182.214487 
L 237.824172 180.45448 
L 234.499534 179.519849 
L 231.262912 178.76394 
L 223.799455 177.625964 
L 218.985606 177.14726 
L 213.323103 176.825582 
L 207.769608 176.68048 
L 204.639896 176.723814 
L 202.292182 176.712343 
L 195.229033 176.782902 
L 194.41319 176.856923 
L 192.788787 176.818636 
L 189.650705 176.8796 
L 179.959929 176.874409 
L 176.665467 176.916833 
L 169.30221 176.979193 
L 165.982819 177.081908 
L 165.137719 177.093871 
L 164.611317 177.28474 
L 164.368867 176.5201 
L 163.952564 177.128279 
L 162.307963 177.197148 
L 159.121995 177.366813 
L 153.303834 177.894528 
L 152.605848 178.062989 
L 150.926365 178.257207 
L 146.986488 179.100426 
L 138.316991 181.877861 
L 138.316991 181.877861 
" style="fill:none;stroke:#008000;stroke-linecap:square;stroke-width:1.5;"/>
   </g>
   <g id="line2d_14">
    <path clip-path="url(#p1d37497644)" d="M 137.605662 182.228949 
L 136.001465 182.852303 
L 134.439644 183.582214 
L 129.618981 186.582095 
L 126.534714 189.121107 
L 124.877941 190.151291 
L 124.116142 190.676102 
L 122.412609 191.638509 
L 121.645875 191.560567 
L 120.849635 191.783295 
L 119.266755 191.446471 
L 118.434517 191.403574 
L 117.585355 191.00647 
L 114.282301 190.198329 
L 113.532487 190.254188 
L 112.672 190.148368 
L 111.817426 190.477625 
L 110.9978 190.368611 
L 110.216652 190.654533 
L 109.388883 190.826655 
L 108.525579 191.230708 
L 107.698902 191.785457 
L 106.914173 192.100945 
L 103.627369 194.909236 
L 102.841191 195.967417 
L 102.039078 196.792599 
L 101.121025 198.246352 
L 100.321215 199.031436 
L 97.030799 203.584787 
L 95.445373 205.666774 
L 94.552274 206.848813 
L 93.779875 207.430052 
L 92.19121 209.105227 
L 91.35692 210.027357 
L 90.522724 210.520627 
L 88.983979 210.384201 
L 87.384373 209.694442 
L 85.71931 208.421224 
L 85.009593 207.576273 
L 84.123375 207.120275 
L 83.364736 206.216921 
L 82.587715 205.694098 
L 81.833604 205.452833 
L 81.083325 204.854533 
L 80.230229 204.677066 
L 79.438374 204.847203 
L 78.702709 204.76042 
L 77.953004 205.077989 
L 76.310419 206.588203 
L 75.538579 207.856926 
L 74.776328 209.496444 
L 73.087762 214.262015 
L 71.625556 222.221726 
L 69.953925 234.334214 
L 69.228145 242.116364 
L 69.357669 238.623062 
L 69.860746 204.22125 
L 70.721841 176.330556 
L 71.481289 166.04334 
L 72.295888 161.00548 
L 73.138538 158.557496 
L 73.95099 157.333075 
L 74.736215 156.666062 
L 76.428737 156.448298 
L 77.990534 156.420952 
L 78.787683 156.486097 
L 79.653152 156.361591 
L 80.423138 155.981296 
L 81.228351 155.959275 
L 81.981107 155.573215 
L 82.844178 154.963708 
L 83.664476 154.68967 
L 84.433947 154.145767 
L 85.135804 153.238817 
L 85.952442 152.750223 
L 88.377964 150.102241 
L 89.057186 149.474989 
L 89.861201 148.51801 
L 91.566982 147.141014 
L 92.308826 147.099841 
L 93.013965 146.873773 
L 93.877053 147.320406 
L 95.470964 147.398903 
L 96.195794 148.016484 
L 97.793081 148.766659 
L 98.55826 149.583311 
L 100.116708 150.716449 
L 100.951918 151.626224 
L 101.788153 152.044319 
L 102.475017 153.283138 
L 104.84802 155.648802 
L 105.703325 156.098058 
L 106.473359 156.8596 
L 107.260205 157.307969 
L 108.068701 157.535406 
L 108.903411 158.002023 
L 109.668775 158.254828 
L 110.465255 158.244915 
L 111.309772 158.626603 
L 112.085519 158.55402 
L 114.599379 159.320355 
L 117.796236 159.513632 
L 118.706013 159.218917 
L 119.486103 159.250485 
L 120.264814 159.070661 
L 121.058827 158.749769 
L 123.597741 158.417639 
L 124.363734 158.658698 
L 126.072577 158.910234 
L 129.335112 160.61209 
L 130.956755 161.714973 
L 132.640699 162.652331 
L 133.390931 163.382403 
L 134.271516 163.826049 
L 135.873316 164.953259 
L 136.732178 165.326647 
L 138.329443 166.296243 
L 146.41408 169.738061 
L 151.844898 171.400713 
L 156.60559 172.213757 
L 162.927334 172.638664 
L 178.145667 172.74921 
L 179.776703 172.693205 
L 181.453972 172.681449 
L 199.517224 172.254292 
L 203.571562 172.050235 
L 205.247042 171.994777 
L 208.415841 171.820174 
L 217.045188 171.109509 
L 218.613407 170.902508 
L 222.592939 170.340013 
L 225.771562 169.684277 
L 227.329665 169.2841 
L 236.106774 167.36782 
L 237.710694 167.134362 
L 253.96604 166.213803 
L 258.89487 166.432721 
L 262.212033 166.696414 
L 271.042578 167.22538 
L 274.954533 166.998947 
L 277.40483 166.615667 
L 282.130227 165.423438 
L 283.748817 164.963089 
L 301.206479 159.326463 
L 308.571235 157.633297 
L 323.352433 155.326228 
L 324.159521 155.277789 
L 324.891473 155.056711 
L 326.551967 154.867246 
L 329.808838 154.262538 
L 333.84365 153.58226 
L 338.577898 152.659744 
L 346.450246 151.20732 
L 349.669448 150.592662 
L 353.560523 150.008724 
L 361.583246 149.155577 
L 366.445914 148.873102 
L 369.735285 148.720254 
L 373.317773 148.455255 
L 372.809584 155.739703 
L 372.012208 159.249789 
L 371.210084 161.851936 
L 369.62472 165.496449 
L 368.848911 166.813595 
L 368.017501 167.972716 
L 366.455913 169.701465 
L 365.660258 170.457395 
L 363.315329 172.146508 
L 360.937282 173.318115 
L 358.506903 174.249215 
L 356.897443 174.750266 
L 352.927173 175.803034 
L 346.485494 177.030205 
L 339.072787 178.296096 
L 333.387475 179.300633 
L 331.739868 179.610671 
L 327.580193 180.426243 
L 321.100051 181.974788 
L 317.131301 183.127641 
L 308.429784 186.28641 
L 306.065531 187.340195 
L 303.639615 188.407767 
L 288.56673 195.711853 
L 286.185832 196.703909 
L 281.188641 198.008313 
L 279.628171 198.237324 
L 276.308521 198.461225 
L 273.812047 198.171581 
L 272.210015 197.840378 
L 270.53367 197.392414 
L 268.061144 196.466755 
L 264.784667 194.937106 
L 255.898895 189.503097 
L 251.116281 186.776412 
L 246.430457 184.598639 
L 245.714787 184.014828 
L 244.078486 183.623484 
L 242.595241 183.074216 
L 239.398198 182.15096 
L 237.798431 181.656511 
L 227.477792 179.502775 
L 224.25634 179.075596 
L 216.052569 178.219372 
L 212.819656 177.988882 
L 209.500787 177.805749 
L 206.186013 177.655903 
L 202.077955 177.59582 
L 199.679199 177.551268 
L 174.254351 177.429858 
L 171.870862 177.466563 
L 164.910236 177.533731 
L 164.528286 178.203858 
L 164.328155 177.643581 
L 160.285133 177.796906 
L 158.598348 177.908128 
L 155.449785 178.157757 
L 148.720818 179.181835 
L 140.571963 181.495454 
L 138.137917 182.357119 
L 138.137917 182.357119 
" style="fill:none;stroke:#000000;stroke-dasharray:5.55,2.4;stroke-dashoffset:0;stroke-width:1.5;"/>
   </g>
   <g id="patch_3">
    <path d="M 54 252 
L 54 34.56 
" style="fill:none;stroke:#000000;stroke-linecap:square;stroke-linejoin:miter;stroke-width:0.8;"/>
   </g>
   <g id="patch_4">
    <path d="M 388.8 252 
L 388.8 34.56 
" style="fill:none;stroke:#000000;stroke-linecap:square;stroke-linejoin:miter;stroke-width:0.8;"/>
   </g>
   <g id="patch_5">
    <path d="M 54 252 
L 388.8 252 
" style="fill:none;stroke:#000000;stroke-linecap:square;stroke-linejoin:miter;stroke-width:0.8;"/>
   </g>
   <g id="patch_6">
    <path d="M 54 34.56 
L 388.8 34.56 
" style="fill:none;stroke:#000000;stroke-linecap:square;stroke-linejoin:miter;stroke-width:0.8;"/>
   </g>
  </g>
 </g>
 <defs>
  <clipPath id="p1d37497644">
   <rect height="217.44" width="334.8" x="54" y="34.56"/>
  </clipPath>
 </defs>
 <defs>
  <pattern height="72" id="h9836eb9264" patternUnits="userSpaceOnUse" width="72" x="0" y="0">
   <rect fill="#008000" height="73" width="73" x="0" y="0"/>
   <path d="M -36 36 
L 36 -36 
M -30 42 
L 42 -30 
M -24 48 
L 48 -24 
M -18 54 
L 54 -18 
M -12 60 
L 60 -12 
M -6 66 
L 66 -6 
M 0 72 
L 72 0 
M 6 78 
L 78 6 
M 12 84 
L 84 12 
M 18 90 
L 90 18 
M 24 96 
L 96 24 
M 30 102 
L 102 30 
M 36 108 
L 108 36 
" style="fill:#008000;stroke:#008000;stroke-linecap:butt;stroke-linejoin:miter;stroke-opacity:0.1;stroke-width:1.0;"/>
  </pattern>
 </defs>
</svg>
