<?xml version="1.0" encoding="utf-8" standalone="no"?>
<!DOCTYPE svg PUBLIC "-//W3C//DTD SVG 1.1//EN"
  "http://www.w3.org/Graphics/SVG/1.1/DTD/svg11.dtd">
<!-- Created with matplotlib (https://matplotlib.org/) -->
<svg height="288pt" version="1.1" viewBox="0 0 720 288" width="720pt" xmlns="http://www.w3.org/2000/svg" xmlns:xlink="http://www.w3.org/1999/xlink">
 <metadata>
  <rdf:RDF xmlns:cc="http://creativecommons.org/ns#" xmlns:dc="http://purl.org/dc/elements/1.1/" xmlns:rdf="http://www.w3.org/1999/02/22-rdf-syntax-ns#">
   <cc:Work>
    <dc:type rdf:resource="http://purl.org/dc/dcmitype/StillImage"/>
    <dc:date>2021-03-12T10:24:24.895500</dc:date>
    <dc:format>image/svg+xml</dc:format>
    <dc:creator>
     <cc:Agent>
      <dc:title>Matplotlib v3.3.2, https://matplotlib.org/</dc:title>
     </cc:Agent>
    </dc:creator>
   </cc:Work>
  </rdf:RDF>
 </metadata>
 <defs>
  <style type="text/css">*{stroke-linecap:butt;stroke-linejoin:round;}</style>
 </defs>
 <g id="figure_1">
  <g id="patch_1">
   <path d="M 0 288 
L 720 288 
L 720 0 
L 0 0 
z
" style="fill:none;"/>
  </g>
  <g id="axes_1">
   <g id="patch_2">
    <path d="M 90 252 
L 343.636364 252 
L 343.636364 34.56 
L 90 34.56 
z
" style="fill:#ffffff;"/>
   </g>
   <g id="matplotlib.axis_1">
    <g id="xtick_1">
     <g id="line2d_1">
      <defs>
       <path d="M 0 0 
L 0 3.5 
" id="m57ff5a0ff5" style="stroke:#000000;stroke-width:0.8;"/>
      </defs>
      <g>
       <use style="stroke:#000000;stroke-width:0.8;" x="95.857263" xlink:href="#m57ff5a0ff5" y="252"/>
      </g>
     </g>
     <g id="text_1">
      <!-- 0.00 -->
      <g transform="translate(84.724451 266.598437)scale(0.1 -0.1)">
       <defs>
        <path d="M 31.78125 66.40625 
Q 24.171875 66.40625 20.328125 58.90625 
Q 16.5 51.421875 16.5 36.375 
Q 16.5 21.390625 20.328125 13.890625 
Q 24.171875 6.390625 31.78125 6.390625 
Q 39.453125 6.390625 43.28125 13.890625 
Q 47.125 21.390625 47.125 36.375 
Q 47.125 51.421875 43.28125 58.90625 
Q 39.453125 66.40625 31.78125 66.40625 
z
M 31.78125 74.21875 
Q 44.046875 74.21875 50.515625 64.515625 
Q 56.984375 54.828125 56.984375 36.375 
Q 56.984375 17.96875 50.515625 8.265625 
Q 44.046875 -1.421875 31.78125 -1.421875 
Q 19.53125 -1.421875 13.0625 8.265625 
Q 6.59375 17.96875 6.59375 36.375 
Q 6.59375 54.828125 13.0625 64.515625 
Q 19.53125 74.21875 31.78125 74.21875 
z
" id="DejaVuSans-48"/>
        <path d="M 10.6875 12.40625 
L 21 12.40625 
L 21 0 
L 10.6875 0 
z
" id="DejaVuSans-46"/>
       </defs>
       <use xlink:href="#DejaVuSans-48"/>
       <use x="63.623047" xlink:href="#DejaVuSans-46"/>
       <use x="95.410156" xlink:href="#DejaVuSans-48"/>
       <use x="159.033203" xlink:href="#DejaVuSans-48"/>
      </g>
     </g>
    </g>
    <g id="xtick_2">
     <g id="line2d_2">
      <g>
       <use style="stroke:#000000;stroke-width:0.8;" x="134.668645" xlink:href="#m57ff5a0ff5" y="252"/>
      </g>
     </g>
     <g id="text_2">
      <!-- 0.25 -->
      <g transform="translate(123.535833 266.598437)scale(0.1 -0.1)">
       <defs>
        <path d="M 19.1875 8.296875 
L 53.609375 8.296875 
L 53.609375 0 
L 7.328125 0 
L 7.328125 8.296875 
Q 12.9375 14.109375 22.625 23.890625 
Q 32.328125 33.6875 34.8125 36.53125 
Q 39.546875 41.84375 41.421875 45.53125 
Q 43.3125 49.21875 43.3125 52.78125 
Q 43.3125 58.59375 39.234375 62.25 
Q 35.15625 65.921875 28.609375 65.921875 
Q 23.96875 65.921875 18.8125 64.3125 
Q 13.671875 62.703125 7.8125 59.421875 
L 7.8125 69.390625 
Q 13.765625 71.78125 18.9375 73 
Q 24.125 74.21875 28.421875 74.21875 
Q 39.75 74.21875 46.484375 68.546875 
Q 53.21875 62.890625 53.21875 53.421875 
Q 53.21875 48.921875 51.53125 44.890625 
Q 49.859375 40.875 45.40625 35.40625 
Q 44.1875 33.984375 37.640625 27.21875 
Q 31.109375 20.453125 19.1875 8.296875 
z
" id="DejaVuSans-50"/>
        <path d="M 10.796875 72.90625 
L 49.515625 72.90625 
L 49.515625 64.59375 
L 19.828125 64.59375 
L 19.828125 46.734375 
Q 21.96875 47.46875 24.109375 47.828125 
Q 26.265625 48.1875 28.421875 48.1875 
Q 40.625 48.1875 47.75 41.5 
Q 54.890625 34.8125 54.890625 23.390625 
Q 54.890625 11.625 47.5625 5.09375 
Q 40.234375 -1.421875 26.90625 -1.421875 
Q 22.3125 -1.421875 17.546875 -0.640625 
Q 12.796875 0.140625 7.71875 1.703125 
L 7.71875 11.625 
Q 12.109375 9.234375 16.796875 8.0625 
Q 21.484375 6.890625 26.703125 6.890625 
Q 35.15625 6.890625 40.078125 11.328125 
Q 45.015625 15.765625 45.015625 23.390625 
Q 45.015625 31 40.078125 35.4375 
Q 35.15625 39.890625 26.703125 39.890625 
Q 22.75 39.890625 18.8125 39.015625 
Q 14.890625 38.140625 10.796875 36.28125 
z
" id="DejaVuSans-53"/>
       </defs>
       <use xlink:href="#DejaVuSans-48"/>
       <use x="63.623047" xlink:href="#DejaVuSans-46"/>
       <use x="95.410156" xlink:href="#DejaVuSans-50"/>
       <use x="159.033203" xlink:href="#DejaVuSans-53"/>
      </g>
     </g>
    </g>
    <g id="xtick_3">
     <g id="line2d_3">
      <g>
       <use style="stroke:#000000;stroke-width:0.8;" x="173.480027" xlink:href="#m57ff5a0ff5" y="252"/>
      </g>
     </g>
     <g id="text_3">
      <!-- 0.50 -->
      <g transform="translate(162.347215 266.598437)scale(0.1 -0.1)">
       <use xlink:href="#DejaVuSans-48"/>
       <use x="63.623047" xlink:href="#DejaVuSans-46"/>
       <use x="95.410156" xlink:href="#DejaVuSans-53"/>
       <use x="159.033203" xlink:href="#DejaVuSans-48"/>
      </g>
     </g>
    </g>
    <g id="xtick_4">
     <g id="line2d_4">
      <g>
       <use style="stroke:#000000;stroke-width:0.8;" x="212.291409" xlink:href="#m57ff5a0ff5" y="252"/>
      </g>
     </g>
     <g id="text_4">
      <!-- 0.75 -->
      <g transform="translate(201.158597 266.598437)scale(0.1 -0.1)">
       <defs>
        <path d="M 8.203125 72.90625 
L 55.078125 72.90625 
L 55.078125 68.703125 
L 28.609375 0 
L 18.3125 0 
L 43.21875 64.59375 
L 8.203125 64.59375 
z
" id="DejaVuSans-55"/>
       </defs>
       <use xlink:href="#DejaVuSans-48"/>
       <use x="63.623047" xlink:href="#DejaVuSans-46"/>
       <use x="95.410156" xlink:href="#DejaVuSans-55"/>
       <use x="159.033203" xlink:href="#DejaVuSans-53"/>
      </g>
     </g>
    </g>
    <g id="xtick_5">
     <g id="line2d_5">
      <g>
       <use style="stroke:#000000;stroke-width:0.8;" x="251.102791" xlink:href="#m57ff5a0ff5" y="252"/>
      </g>
     </g>
     <g id="text_5">
      <!-- 1.00 -->
      <g transform="translate(239.969979 266.598437)scale(0.1 -0.1)">
       <defs>
        <path d="M 12.40625 8.296875 
L 28.515625 8.296875 
L 28.515625 63.921875 
L 10.984375 60.40625 
L 10.984375 69.390625 
L 28.421875 72.90625 
L 38.28125 72.90625 
L 38.28125 8.296875 
L 54.390625 8.296875 
L 54.390625 0 
L 12.40625 0 
z
" id="DejaVuSans-49"/>
       </defs>
       <use xlink:href="#DejaVuSans-49"/>
       <use x="63.623047" xlink:href="#DejaVuSans-46"/>
       <use x="95.410156" xlink:href="#DejaVuSans-48"/>
       <use x="159.033203" xlink:href="#DejaVuSans-48"/>
      </g>
     </g>
    </g>
    <g id="xtick_6">
     <g id="line2d_6">
      <g>
       <use style="stroke:#000000;stroke-width:0.8;" x="289.914173" xlink:href="#m57ff5a0ff5" y="252"/>
      </g>
     </g>
     <g id="text_6">
      <!-- 1.25 -->
      <g transform="translate(278.781361 266.598437)scale(0.1 -0.1)">
       <use xlink:href="#DejaVuSans-49"/>
       <use x="63.623047" xlink:href="#DejaVuSans-46"/>
       <use x="95.410156" xlink:href="#DejaVuSans-50"/>
       <use x="159.033203" xlink:href="#DejaVuSans-53"/>
      </g>
     </g>
    </g>
    <g id="xtick_7">
     <g id="line2d_7">
      <g>
       <use style="stroke:#000000;stroke-width:0.8;" x="328.725555" xlink:href="#m57ff5a0ff5" y="252"/>
      </g>
     </g>
     <g id="text_7">
      <!-- 1.50 -->
      <g transform="translate(317.592743 266.598437)scale(0.1 -0.1)">
       <use xlink:href="#DejaVuSans-49"/>
       <use x="63.623047" xlink:href="#DejaVuSans-46"/>
       <use x="95.410156" xlink:href="#DejaVuSans-53"/>
       <use x="159.033203" xlink:href="#DejaVuSans-48"/>
      </g>
     </g>
    </g>
    <g id="text_8">
     <!-- $U_{RHE}$ / [V] -->
     <g transform="translate(193.518182 280.276563)scale(0.1 -0.1)">
      <defs>
       <path d="M 15.484375 72.90625 
L 25.390625 72.90625 
L 16.796875 28.609375 
Q 16.265625 25.640625 16.046875 23.703125 
Q 15.828125 21.78125 15.828125 20.3125 
Q 15.828125 13.578125 19.578125 10.078125 
Q 23.34375 6.59375 30.609375 6.59375 
Q 40.046875 6.59375 45.28125 11.765625 
Q 50.53125 16.9375 52.78125 28.609375 
L 61.375 72.90625 
L 71.296875 72.90625 
L 62.5 27.390625 
Q 59.625 12.640625 51.5625 5.609375 
Q 43.5 -1.421875 29.5 -1.421875 
Q 18.5625 -1.421875 12.1875 4.078125 
Q 5.8125 9.578125 5.8125 19 
Q 5.8125 20.703125 6.046875 22.828125 
Q 6.296875 24.953125 6.78125 27.390625 
z
" id="DejaVuSans-Oblique-85"/>
       <path d="M 25.203125 64.796875 
L 20.21875 38.921875 
L 32.90625 38.921875 
Q 40.375 38.921875 44.984375 43.046875 
Q 49.609375 47.171875 49.609375 53.8125 
Q 49.609375 59.125 46.5 61.953125 
Q 43.40625 64.796875 37.59375 64.796875 
z
M 43.3125 35.015625 
Q 46.4375 34.28125 48.515625 31.390625 
Q 50.59375 28.515625 53.328125 19.921875 
L 59.515625 0 
L 49.125 0 
L 43.40625 18.703125 
Q 41.21875 25.921875 38.328125 28.359375 
Q 35.453125 30.8125 29.5 30.8125 
L 18.609375 30.8125 
L 12.59375 0 
L 2.6875 0 
L 16.890625 72.90625 
L 39.109375 72.90625 
Q 49.21875 72.90625 54.609375 68.328125 
Q 60.015625 63.765625 60.015625 55.171875 
Q 60.015625 47.5625 55.421875 41.984375 
Q 50.828125 36.421875 43.3125 35.015625 
z
" id="DejaVuSans-Oblique-82"/>
       <path d="M 16.890625 72.90625 
L 26.8125 72.90625 
L 21 43.015625 
L 56.78125 43.015625 
L 62.59375 72.90625 
L 72.515625 72.90625 
L 58.296875 0 
L 48.390625 0 
L 55.171875 34.71875 
L 19.390625 34.71875 
L 12.59375 0 
L 2.6875 0 
z
" id="DejaVuSans-Oblique-72"/>
       <path d="M 16.890625 72.90625 
L 62.984375 72.90625 
L 61.375 64.59375 
L 25.09375 64.59375 
L 20.90625 43.015625 
L 55.71875 43.015625 
L 54.109375 34.71875 
L 19.28125 34.71875 
L 14.203125 8.296875 
L 51.3125 8.296875 
L 49.703125 0 
L 2.6875 0 
z
" id="DejaVuSans-Oblique-69"/>
       <path id="DejaVuSans-32"/>
       <path d="M 25.390625 72.90625 
L 33.6875 72.90625 
L 8.296875 -9.28125 
L 0 -9.28125 
z
" id="DejaVuSans-47"/>
       <path d="M 8.59375 75.984375 
L 29.296875 75.984375 
L 29.296875 69 
L 17.578125 69 
L 17.578125 -6.203125 
L 29.296875 -6.203125 
L 29.296875 -13.1875 
L 8.59375 -13.1875 
z
" id="DejaVuSans-91"/>
       <path d="M 28.609375 0 
L 0.78125 72.90625 
L 11.078125 72.90625 
L 34.1875 11.53125 
L 57.328125 72.90625 
L 67.578125 72.90625 
L 39.796875 0 
z
" id="DejaVuSans-86"/>
       <path d="M 30.421875 75.984375 
L 30.421875 -13.1875 
L 9.71875 -13.1875 
L 9.71875 -6.203125 
L 21.390625 -6.203125 
L 21.390625 69 
L 9.71875 69 
L 9.71875 75.984375 
z
" id="DejaVuSans-93"/>
      </defs>
      <use transform="translate(0 0.015625)" xlink:href="#DejaVuSans-Oblique-85"/>
      <use transform="translate(73.193359 -16.390625)scale(0.7)" xlink:href="#DejaVuSans-Oblique-82"/>
      <use transform="translate(121.831055 -16.390625)scale(0.7)" xlink:href="#DejaVuSans-Oblique-72"/>
      <use transform="translate(174.467773 -16.390625)scale(0.7)" xlink:href="#DejaVuSans-Oblique-69"/>
      <use transform="translate(221.430664 0.015625)" xlink:href="#DejaVuSans-32"/>
      <use transform="translate(253.217773 0.015625)" xlink:href="#DejaVuSans-47"/>
      <use transform="translate(286.90918 0.015625)" xlink:href="#DejaVuSans-32"/>
      <use transform="translate(318.696289 0.015625)" xlink:href="#DejaVuSans-91"/>
      <use transform="translate(357.709961 0.015625)" xlink:href="#DejaVuSans-86"/>
      <use transform="translate(426.118164 0.015625)" xlink:href="#DejaVuSans-93"/>
     </g>
    </g>
   </g>
   <g id="matplotlib.axis_2">
    <g id="ytick_1">
     <g id="line2d_8">
      <defs>
       <path d="M 0 0 
L -3.5 0 
" id="m1cb56f3c00" style="stroke:#000000;stroke-width:0.8;"/>
      </defs>
      <g>
       <use style="stroke:#000000;stroke-width:0.8;" x="90" xlink:href="#m1cb56f3c00" y="208.937439"/>
      </g>
     </g>
     <g id="text_9">
      <!-- −0.03 -->
      <g transform="translate(52.354687 212.736658)scale(0.1 -0.1)">
       <defs>
        <path d="M 10.59375 35.5 
L 73.1875 35.5 
L 73.1875 27.203125 
L 10.59375 27.203125 
z
" id="DejaVuSans-8722"/>
        <path d="M 40.578125 39.3125 
Q 47.65625 37.796875 51.625 33 
Q 55.609375 28.21875 55.609375 21.1875 
Q 55.609375 10.40625 48.1875 4.484375 
Q 40.765625 -1.421875 27.09375 -1.421875 
Q 22.515625 -1.421875 17.65625 -0.515625 
Q 12.796875 0.390625 7.625 2.203125 
L 7.625 11.71875 
Q 11.71875 9.328125 16.59375 8.109375 
Q 21.484375 6.890625 26.8125 6.890625 
Q 36.078125 6.890625 40.9375 10.546875 
Q 45.796875 14.203125 45.796875 21.1875 
Q 45.796875 27.640625 41.28125 31.265625 
Q 36.765625 34.90625 28.71875 34.90625 
L 20.21875 34.90625 
L 20.21875 43.015625 
L 29.109375 43.015625 
Q 36.375 43.015625 40.234375 45.921875 
Q 44.09375 48.828125 44.09375 54.296875 
Q 44.09375 59.90625 40.109375 62.90625 
Q 36.140625 65.921875 28.71875 65.921875 
Q 24.65625 65.921875 20.015625 65.03125 
Q 15.375 64.15625 9.8125 62.3125 
L 9.8125 71.09375 
Q 15.4375 72.65625 20.34375 73.4375 
Q 25.25 74.21875 29.59375 74.21875 
Q 40.828125 74.21875 47.359375 69.109375 
Q 53.90625 64.015625 53.90625 55.328125 
Q 53.90625 49.265625 50.4375 45.09375 
Q 46.96875 40.921875 40.578125 39.3125 
z
" id="DejaVuSans-51"/>
       </defs>
       <use xlink:href="#DejaVuSans-8722"/>
       <use x="83.789062" xlink:href="#DejaVuSans-48"/>
       <use x="147.412109" xlink:href="#DejaVuSans-46"/>
       <use x="179.199219" xlink:href="#DejaVuSans-48"/>
       <use x="242.822266" xlink:href="#DejaVuSans-51"/>
      </g>
     </g>
    </g>
    <g id="ytick_2">
     <g id="line2d_9">
      <g>
       <use style="stroke:#000000;stroke-width:0.8;" x="90" xlink:href="#m1cb56f3c00" y="164.038066"/>
      </g>
     </g>
     <g id="text_10">
      <!-- −0.02 -->
      <g transform="translate(52.354687 167.837284)scale(0.1 -0.1)">
       <use xlink:href="#DejaVuSans-8722"/>
       <use x="83.789062" xlink:href="#DejaVuSans-48"/>
       <use x="147.412109" xlink:href="#DejaVuSans-46"/>
       <use x="179.199219" xlink:href="#DejaVuSans-48"/>
       <use x="242.822266" xlink:href="#DejaVuSans-50"/>
      </g>
     </g>
    </g>
    <g id="ytick_3">
     <g id="line2d_10">
      <g>
       <use style="stroke:#000000;stroke-width:0.8;" x="90" xlink:href="#m1cb56f3c00" y="119.138692"/>
      </g>
     </g>
     <g id="text_11">
      <!-- −0.01 -->
      <g transform="translate(52.354687 122.937911)scale(0.1 -0.1)">
       <use xlink:href="#DejaVuSans-8722"/>
       <use x="83.789062" xlink:href="#DejaVuSans-48"/>
       <use x="147.412109" xlink:href="#DejaVuSans-46"/>
       <use x="179.199219" xlink:href="#DejaVuSans-48"/>
       <use x="242.822266" xlink:href="#DejaVuSans-49"/>
      </g>
     </g>
    </g>
    <g id="ytick_4">
     <g id="line2d_11">
      <g>
       <use style="stroke:#000000;stroke-width:0.8;" x="90" xlink:href="#m1cb56f3c00" y="74.239318"/>
      </g>
     </g>
     <g id="text_12">
      <!-- 0.00 -->
      <g transform="translate(60.734375 78.038537)scale(0.1 -0.1)">
       <use xlink:href="#DejaVuSans-48"/>
       <use x="63.623047" xlink:href="#DejaVuSans-46"/>
       <use x="95.410156" xlink:href="#DejaVuSans-48"/>
       <use x="159.033203" xlink:href="#DejaVuSans-48"/>
      </g>
     </g>
    </g>
    <g id="text_13">
     <!-- raw current / [mA] -->
     <g transform="translate(46.275 189.166719)rotate(-90)scale(0.1 -0.1)">
      <defs>
       <path d="M 41.109375 46.296875 
Q 39.59375 47.171875 37.8125 47.578125 
Q 36.03125 48 33.890625 48 
Q 26.265625 48 22.1875 43.046875 
Q 18.109375 38.09375 18.109375 28.8125 
L 18.109375 0 
L 9.078125 0 
L 9.078125 54.6875 
L 18.109375 54.6875 
L 18.109375 46.1875 
Q 20.953125 51.171875 25.484375 53.578125 
Q 30.03125 56 36.53125 56 
Q 37.453125 56 38.578125 55.875 
Q 39.703125 55.765625 41.0625 55.515625 
z
" id="DejaVuSans-114"/>
       <path d="M 34.28125 27.484375 
Q 23.390625 27.484375 19.1875 25 
Q 14.984375 22.515625 14.984375 16.5 
Q 14.984375 11.71875 18.140625 8.90625 
Q 21.296875 6.109375 26.703125 6.109375 
Q 34.1875 6.109375 38.703125 11.40625 
Q 43.21875 16.703125 43.21875 25.484375 
L 43.21875 27.484375 
z
M 52.203125 31.203125 
L 52.203125 0 
L 43.21875 0 
L 43.21875 8.296875 
Q 40.140625 3.328125 35.546875 0.953125 
Q 30.953125 -1.421875 24.3125 -1.421875 
Q 15.921875 -1.421875 10.953125 3.296875 
Q 6 8.015625 6 15.921875 
Q 6 25.140625 12.171875 29.828125 
Q 18.359375 34.515625 30.609375 34.515625 
L 43.21875 34.515625 
L 43.21875 35.40625 
Q 43.21875 41.609375 39.140625 45 
Q 35.0625 48.390625 27.6875 48.390625 
Q 23 48.390625 18.546875 47.265625 
Q 14.109375 46.140625 10.015625 43.890625 
L 10.015625 52.203125 
Q 14.9375 54.109375 19.578125 55.046875 
Q 24.21875 56 28.609375 56 
Q 40.484375 56 46.34375 49.84375 
Q 52.203125 43.703125 52.203125 31.203125 
z
" id="DejaVuSans-97"/>
       <path d="M 4.203125 54.6875 
L 13.1875 54.6875 
L 24.421875 12.015625 
L 35.59375 54.6875 
L 46.1875 54.6875 
L 57.421875 12.015625 
L 68.609375 54.6875 
L 77.59375 54.6875 
L 63.28125 0 
L 52.6875 0 
L 40.921875 44.828125 
L 29.109375 0 
L 18.5 0 
z
" id="DejaVuSans-119"/>
       <path d="M 48.78125 52.59375 
L 48.78125 44.1875 
Q 44.96875 46.296875 41.140625 47.34375 
Q 37.3125 48.390625 33.40625 48.390625 
Q 24.65625 48.390625 19.8125 42.84375 
Q 14.984375 37.3125 14.984375 27.296875 
Q 14.984375 17.28125 19.8125 11.734375 
Q 24.65625 6.203125 33.40625 6.203125 
Q 37.3125 6.203125 41.140625 7.25 
Q 44.96875 8.296875 48.78125 10.40625 
L 48.78125 2.09375 
Q 45.015625 0.34375 40.984375 -0.53125 
Q 36.96875 -1.421875 32.421875 -1.421875 
Q 20.0625 -1.421875 12.78125 6.34375 
Q 5.515625 14.109375 5.515625 27.296875 
Q 5.515625 40.671875 12.859375 48.328125 
Q 20.21875 56 33.015625 56 
Q 37.15625 56 41.109375 55.140625 
Q 45.0625 54.296875 48.78125 52.59375 
z
" id="DejaVuSans-99"/>
       <path d="M 8.5 21.578125 
L 8.5 54.6875 
L 17.484375 54.6875 
L 17.484375 21.921875 
Q 17.484375 14.15625 20.5 10.265625 
Q 23.53125 6.390625 29.59375 6.390625 
Q 36.859375 6.390625 41.078125 11.03125 
Q 45.3125 15.671875 45.3125 23.6875 
L 45.3125 54.6875 
L 54.296875 54.6875 
L 54.296875 0 
L 45.3125 0 
L 45.3125 8.40625 
Q 42.046875 3.421875 37.71875 1 
Q 33.40625 -1.421875 27.6875 -1.421875 
Q 18.265625 -1.421875 13.375 4.4375 
Q 8.5 10.296875 8.5 21.578125 
z
M 31.109375 56 
z
" id="DejaVuSans-117"/>
       <path d="M 56.203125 29.59375 
L 56.203125 25.203125 
L 14.890625 25.203125 
Q 15.484375 15.921875 20.484375 11.0625 
Q 25.484375 6.203125 34.421875 6.203125 
Q 39.59375 6.203125 44.453125 7.46875 
Q 49.3125 8.734375 54.109375 11.28125 
L 54.109375 2.78125 
Q 49.265625 0.734375 44.1875 -0.34375 
Q 39.109375 -1.421875 33.890625 -1.421875 
Q 20.796875 -1.421875 13.15625 6.1875 
Q 5.515625 13.8125 5.515625 26.8125 
Q 5.515625 40.234375 12.765625 48.109375 
Q 20.015625 56 32.328125 56 
Q 43.359375 56 49.78125 48.890625 
Q 56.203125 41.796875 56.203125 29.59375 
z
M 47.21875 32.234375 
Q 47.125 39.59375 43.09375 43.984375 
Q 39.0625 48.390625 32.421875 48.390625 
Q 24.90625 48.390625 20.390625 44.140625 
Q 15.875 39.890625 15.1875 32.171875 
z
" id="DejaVuSans-101"/>
       <path d="M 54.890625 33.015625 
L 54.890625 0 
L 45.90625 0 
L 45.90625 32.71875 
Q 45.90625 40.484375 42.875 44.328125 
Q 39.84375 48.1875 33.796875 48.1875 
Q 26.515625 48.1875 22.3125 43.546875 
Q 18.109375 38.921875 18.109375 30.90625 
L 18.109375 0 
L 9.078125 0 
L 9.078125 54.6875 
L 18.109375 54.6875 
L 18.109375 46.1875 
Q 21.34375 51.125 25.703125 53.5625 
Q 30.078125 56 35.796875 56 
Q 45.21875 56 50.046875 50.171875 
Q 54.890625 44.34375 54.890625 33.015625 
z
" id="DejaVuSans-110"/>
       <path d="M 18.3125 70.21875 
L 18.3125 54.6875 
L 36.8125 54.6875 
L 36.8125 47.703125 
L 18.3125 47.703125 
L 18.3125 18.015625 
Q 18.3125 11.328125 20.140625 9.421875 
Q 21.96875 7.515625 27.59375 7.515625 
L 36.8125 7.515625 
L 36.8125 0 
L 27.59375 0 
Q 17.1875 0 13.234375 3.875 
Q 9.28125 7.765625 9.28125 18.015625 
L 9.28125 47.703125 
L 2.6875 47.703125 
L 2.6875 54.6875 
L 9.28125 54.6875 
L 9.28125 70.21875 
z
" id="DejaVuSans-116"/>
       <path d="M 52 44.1875 
Q 55.375 50.25 60.0625 53.125 
Q 64.75 56 71.09375 56 
Q 79.640625 56 84.28125 50.015625 
Q 88.921875 44.046875 88.921875 33.015625 
L 88.921875 0 
L 79.890625 0 
L 79.890625 32.71875 
Q 79.890625 40.578125 77.09375 44.375 
Q 74.3125 48.1875 68.609375 48.1875 
Q 61.625 48.1875 57.5625 43.546875 
Q 53.515625 38.921875 53.515625 30.90625 
L 53.515625 0 
L 44.484375 0 
L 44.484375 32.71875 
Q 44.484375 40.625 41.703125 44.40625 
Q 38.921875 48.1875 33.109375 48.1875 
Q 26.21875 48.1875 22.15625 43.53125 
Q 18.109375 38.875 18.109375 30.90625 
L 18.109375 0 
L 9.078125 0 
L 9.078125 54.6875 
L 18.109375 54.6875 
L 18.109375 46.1875 
Q 21.1875 51.21875 25.484375 53.609375 
Q 29.78125 56 35.6875 56 
Q 41.65625 56 45.828125 52.96875 
Q 50 49.953125 52 44.1875 
z
" id="DejaVuSans-109"/>
       <path d="M 34.1875 63.1875 
L 20.796875 26.90625 
L 47.609375 26.90625 
z
M 28.609375 72.90625 
L 39.796875 72.90625 
L 67.578125 0 
L 57.328125 0 
L 50.6875 18.703125 
L 17.828125 18.703125 
L 11.1875 0 
L 0.78125 0 
z
" id="DejaVuSans-65"/>
      </defs>
      <use xlink:href="#DejaVuSans-114"/>
      <use x="41.113281" xlink:href="#DejaVuSans-97"/>
      <use x="102.392578" xlink:href="#DejaVuSans-119"/>
      <use x="184.179688" xlink:href="#DejaVuSans-32"/>
      <use x="215.966797" xlink:href="#DejaVuSans-99"/>
      <use x="270.947266" xlink:href="#DejaVuSans-117"/>
      <use x="334.326172" xlink:href="#DejaVuSans-114"/>
      <use x="373.689453" xlink:href="#DejaVuSans-114"/>
      <use x="412.552734" xlink:href="#DejaVuSans-101"/>
      <use x="474.076172" xlink:href="#DejaVuSans-110"/>
      <use x="537.455078" xlink:href="#DejaVuSans-116"/>
      <use x="576.664062" xlink:href="#DejaVuSans-32"/>
      <use x="608.451172" xlink:href="#DejaVuSans-47"/>
      <use x="642.142578" xlink:href="#DejaVuSans-32"/>
      <use x="673.929688" xlink:href="#DejaVuSans-91"/>
      <use x="712.943359" xlink:href="#DejaVuSans-109"/>
      <use x="810.355469" xlink:href="#DejaVuSans-65"/>
      <use x="878.763672" xlink:href="#DejaVuSans-93"/>
     </g>
    </g>
   </g>
   <g id="line2d_12">
    <path clip-path="url(#pd398922b34)" d="M 332.107438 74.239318 
L 326.678856 74.239318 
L 326.678856 74.239318 
L 326.507086 70.661735 
L 326.237592 75.155471 
L 324.324562 75.372661 
L 277.771047 78.885061 
L 265.779482 80.500944 
L 263.913848 80.868174 
L 262.013334 81.215608 
L 256.337132 82.473373 
L 253.960292 83.100837 
L 252.106137 83.621844 
L 246.796557 85.250915 
L 242.914416 86.655915 
L 235.103077 89.97803 
L 229.400384 93.322357 
L 227.022754 95.018115 
L 225.16625 96.473994 
L 223.739486 97.710427 
L 222.34201 98.939806 
L 221.40883 99.777876 
L 217.621608 104.080014 
L 216.212954 106.058703 
L 214.78443 108.367342 
L 213.315538 111.028748 
L 211.413215 115.392045 
L 209.952377 119.319833 
L 208.502967 124.074605 
L 206.588962 131.589149 
L 206.085692 133.761536 
L 203.684964 148.622507 
L 202.721462 156.382374 
L 201.262953 170.605145 
L 200.280586 182.349881 
L 198.355468 209.992028 
L 197.390018 224.046078 
L 196.385777 235.537051 
L 195.920185 239.472341 
L 195.446617 241.717649 
L 194.975933 242.116364 
L 194.52146 240.482508 
L 194.010292 236.895762 
L 193.028691 223.057299 
L 192.139887 202.479633 
L 188.833386 121.643225 
L 187.947769 104.647678 
L 186.00278 80.838089 
L 185.062461 73.235089 
L 184.102449 67.902126 
L 183.666633 65.942593 
L 182.743439 63.249766 
L 181.771053 61.803147 
L 181.330941 61.422133 
L 180.83552 61.223037 
L 180.382132 61.163618 
L 179.411639 61.383851 
L 177.980224 62.255795 
L 175.605893 64.354007 
L 171.708775 67.656515 
L 168.799685 69.702572 
L 164.892599 71.685086 
L 161.477935 72.915785 
L 156.695145 74.148492 
L 155.198929 74.435397 
L 151.016796 75.268843 
L 146.790247 76.536928 
L 145.833266 76.957981 
L 145.377607 77.256309 
L 144.887004 77.444385 
L 142.07219 79.390835 
L 137.307159 83.987732 
L 136.803004 84.541772 
L 135.861878 85.266671 
L 135.359921 85.769016 
L 134.432888 86.213888 
L 133.887815 86.576898 
L 133.409143 86.63678 
L 132.942088 87.005319 
L 131.465346 87.110287 
L 129.53529 87.658867 
L 129.049901 88.008244 
L 128.559909 88.091444 
L 128.065511 88.35048 
L 127.559519 88.77206 
L 127.099202 88.971464 
L 126.118263 89.92432 
L 125.651283 90.174842 
L 124.655566 91.301745 
L 123.692024 92.499864 
L 123.215245 93.062524 
L 122.749143 93.892418 
L 122.230855 94.474229 
L 121.721781 95.243961 
L 121.296469 96.25215 
L 120.283782 97.807493 
L 119.820975 98.687793 
L 118.875098 99.923396 
L 118.39248 100.864961 
L 116.527503 102.892654 
L 116.028257 102.984357 
L 115.10121 103.644922 
L 114.65183 103.694085 
L 114.129505 103.400833 
L 113.690314 103.520749 
L 113.200376 102.997828 
L 112.735692 102.817751 
L 112.289679 102.816084 
L 111.826975 102.332381 
L 111.344913 102.115519 
L 110.858704 102.050498 
L 110.379056 101.683324 
L 109.944565 101.555486 
L 108.979745 101.698086 
L 108.541284 101.833673 
L 108.052105 102.112579 
L 107.603134 102.788008 
L 107.122181 103.283612 
L 106.636732 104.239805 
L 105.733743 106.987196 
L 105.245018 108.932703 
L 104.28612 114.352786 
L 103.330859 122.768119 
L 102.400915 135.658161 
L 101.635544 149.232402 
L 101.724384 150.742454 
L 101.694774 146.547123 
L 101.927745 107.335857 
L 102.426419 80.831848 
L 102.902734 71.274142 
L 103.362617 66.306061 
L 103.84803 63.986157 
L 104.307681 62.826218 
L 104.792565 62.12797 
L 107.153595 61.66917 
L 107.603466 61.455418 
L 108.101306 61.051698 
L 108.558561 60.827055 
L 109.022033 60.428871 
L 109.501487 59.769621 
L 109.963654 59.480832 
L 110.433031 58.904053 
L 110.883549 58.087994 
L 111.347966 57.763023 
L 112.752968 55.956031 
L 114.158357 54.225676 
L 114.640809 53.512214 
L 115.106234 53.54068 
L 115.613863 52.88309 
L 116.077993 52.941339 
L 117.005152 52.296121 
L 117.475371 52.499335 
L 118.443317 52.36496 
L 118.929035 52.770514 
L 119.841823 53.101385 
L 120.338885 53.60281 
L 120.827639 53.531884 
L 121.302401 54.400363 
L 122.258004 55.327461 
L 122.724531 55.852834 
L 123.249149 56.173376 
L 124.234373 57.258384 
L 124.694014 57.538583 
L 125.188319 58.159046 
L 125.671288 58.574366 
L 126.191798 58.856125 
L 126.624097 59.419958 
L 127.148401 59.621848 
L 128.595432 60.964305 
L 129.095317 61.170797 
L 129.565642 61.593805 
L 131.047174 62.334085 
L 131.52757 62.715716 
L 132.964464 63.24403 
L 133.463483 63.602953 
L 133.9533 63.668994 
L 134.915816 64.2287 
L 135.38504 64.334834 
L 136.390806 64.872135 
L 136.865529 65.014043 
L 138.26968 65.813147 
L 139.2555 66.18584 
L 140.685476 67.055276 
L 144.918854 69.528609 
L 145.389623 69.664909 
L 146.312316 70.169023 
L 148.213655 70.836066 
L 150.097387 71.275615 
L 152.918457 71.636787 
L 161.0464 71.664046 
L 161.984672 71.605588 
L 162.982873 71.551501 
L 164.947092 71.444356 
L 167.856241 71.295223 
L 169.783165 71.108472 
L 172.69976 70.928743 
L 174.179509 70.8065 
L 177.041221 70.4773 
L 178.002912 70.373022 
L 186.961436 68.887683 
L 189.754272 67.931468 
L 190.69675 67.55405 
L 193.517908 65.935603 
L 195.449419 64.426957 
L 197.395452 62.47611 
L 200.816158 57.956598 
L 201.760574 56.464731 
L 203.715877 53.33134 
L 204.645486 51.729511 
L 205.682698 50.288742 
L 206.171041 49.581504 
L 206.580387 49.187621 
L 207.525461 48.004151 
L 208.550991 47.258446 
L 209.468424 46.696042 
L 210.960408 46.380191 
L 214.773431 46.209856 
L 215.737059 45.882122 
L 216.696759 45.354982 
L 218.100778 44.443636 
L 218.565899 44.482784 
L 219.052929 44.766513 
L 219.504518 45.519024 
L 220.455687 47.765225 
L 221.892098 51.342382 
L 222.849841 53.260262 
L 223.283729 54.11233 
L 224.685694 55.943989 
L 225.6719 56.790658 
L 226.5584 57.488363 
L 227.999748 58.128757 
L 229.871196 58.573689 
L 233.250094 58.527469 
L 234.65996 58.293411 
L 236.638011 57.826052 
L 237.093244 57.585086 
L 238.067933 57.300239 
L 239.545451 56.767361 
L 242.921965 55.528309 
L 243.899126 55.120194 
L 245.376051 54.731048 
L 246.345775 54.445371 
L 250.675549 53.348495 
L 251.657979 53.155546 
L 255.899453 52.30156 
L 256.84385 52.108006 
L 260.621171 51.108284 
L 262.962334 50.308451 
L 266.264972 49.127966 
L 266.720108 48.793494 
L 266.418337 57.196744 
L 265.946116 61.273235 
L 264.985354 65.94457 
L 264.005479 68.778929 
L 263.077595 70.743078 
L 261.59244 72.821938 
L 260.223781 74.19212 
L 258.777126 75.271244 
L 256.447103 76.664953 
L 254.086971 77.767033 
L 246.535261 80.796933 
L 245.113237 81.310493 
L 236.885603 83.99313 
L 232.505586 84.677665 
L 230.531857 84.806512 
L 229.58415 84.746666 
L 227.680841 84.500795 
L 226.679827 84.307983 
L 223.836872 83.358135 
L 220.530264 81.516584 
L 219.556561 80.875666 
L 217.22053 79.219944 
L 216.28862 78.541708 
L 211.574438 75.331245 
L 208.740368 73.849231 
L 205.449257 72.604804 
L 200.570917 71.842631 
L 195.740697 71.903635 
L 193.291432 72.248427 
L 192.284 72.347756 
L 191.343697 72.502177 
L 186.093272 73.445087 
L 185.13327 73.647724 
L 183.25233 73.966147 
L 180.435396 74.48291 
L 178.092912 74.869626 
L 174.770107 75.325013 
L 172.433329 75.575505 
L 166.182328 76.045764 
L 165.211386 76.062322 
L 162.788761 76.160675 
L 160.810916 76.17213 
L 157.89573 76.277165 
L 155.460845 76.360112 
L 154.460362 76.427103 
L 152.590926 76.569038 
L 147.788221 77.461705 
L 144.021977 79.078701 
L 142.637162 80.036641 
L 140.773666 81.781583 
L 139.844054 82.963365 
L 137.919685 85.450938 
L 135.580123 88.819076 
L 134.161936 90.21286 
L 133.196121 90.955 
L 132.699767 90.722578 
L 132.249082 90.877548 
L 131.321609 90.356987 
L 130.811162 90.258991 
L 129.861568 89.613864 
L 129.330925 89.54741 
L 128.812155 89.254872 
L 128.335839 89.142174 
L 127.387138 89.253105 
L 126.90962 89.628522 
L 126.440576 89.568407 
L 124.951415 90.657935 
L 124.488081 91.29385 
L 124.00773 91.728633 
L 122.039328 94.77451 
L 121.553806 95.897401 
L 121.04674 96.685358 
L 120.565463 98.251671 
L 120.10794 98.898002 
L 117.667554 104.357853 
L 116.687596 106.418686 
L 115.720148 107.430729 
L 115.229868 108.172634 
L 114.760584 108.234584 
L 114.270555 108.766744 
L 111.88801 106.661063 
L 110.931425 105.347315 
L 110.456775 104.934553 
L 110.005109 104.245019 
L 109.536297 103.882087 
L 109.07549 103.823629 
L 108.588596 103.446116 
L 108.134211 103.431647 
L 107.661337 103.817897 
L 107.178275 103.897648 
L 106.716329 104.493118 
L 105.759577 106.530463 
L 104.845364 110.183857 
L 103.896563 115.969079 
L 103.431711 120.104756 
L 102.516259 131.865342 
L 101.528926 148.477359 
L 101.620729 146.133143 
L 101.854348 105.585951 
L 102.360931 78.157317 
L 102.860224 68.66011 
L 103.356029 63.809759 
L 103.833233 61.556963 
L 104.78272 59.621628 
L 105.294884 59.530523 
L 105.743421 59.290989 
L 107.213317 58.897259 
L 107.701052 58.61091 
L 108.163821 58.067196 
L 108.638713 57.900798 
L 109.104628 57.377726 
L 109.61224 56.617462 
L 110.053319 56.288354 
L 110.546839 55.616251 
L 111.019943 54.642504 
L 111.483741 54.167843 
L 112.907304 51.649638 
L 114.322576 49.155804 
L 114.773752 48.311523 
L 115.253751 48.243088 
L 115.696792 47.571164 
L 116.179299 47.68645 
L 116.636101 47.55338 
L 117.113 47.286593 
L 117.607166 47.819437 
L 118.550916 48.340759 
L 119.468192 49.737839 
L 119.931535 50.22997 
L 120.382672 51.083476 
L 120.891561 51.300132 
L 121.354553 52.528089 
L 121.843259 53.176512 
L 122.265906 53.945365 
L 124.185329 55.952198 
L 124.648821 56.186373 
L 125.602148 57.034844 
L 126.08224 57.132976 
L 126.555503 57.636589 
L 127.037186 57.704604 
L 128.499678 58.735796 
L 130.389551 59.318514 
L 130.939075 59.210651 
L 131.383578 59.380253 
L 132.846327 59.220506 
L 133.319856 59.344796 
L 133.823813 59.29537 
L 134.806238 59.671508 
L 135.276386 59.756557 
L 136.244889 60.416374 
L 136.749867 60.651737 
L 140.135638 63.78907 
L 141.164537 64.915501 
L 145.006515 68.570219 
L 145.497549 68.820198 
L 145.972778 69.255509 
L 148.786377 70.655329 
L 151.140856 71.301495 
L 152.111589 71.425118 
L 153.502839 71.606059 
L 155.856513 71.774952 
L 166.294778 71.565274 
L 168.709587 71.446258 
L 171.151616 71.324801 
L 173.574002 71.124207 
L 174.555056 71.098981 
L 175.515114 71.002667 
L 180.860515 70.545704 
L 189.414883 69.272181 
L 193.641001 68.056108 
L 195.978247 67.146464 
L 201.208648 64.3518 
L 204.061558 62.783154 
L 205.06296 62.306653 
L 207.432336 61.507183 
L 208.438945 61.268859 
L 211.800091 60.823495 
L 213.784516 60.575228 
L 218.146026 59.692698 
L 219.573403 59.871698 
L 221.035378 60.604439 
L 223.84806 62.678421 
L 225.737055 63.520945 
L 226.706317 63.797566 
L 228.561415 63.883574 
L 230.433138 63.650114 
L 234.233342 62.564027 
L 236.568623 61.599646 
L 237.549574 61.127463 
L 240.894111 59.480008 
L 241.84675 59.099536 
L 243.81192 58.198015 
L 245.266735 57.71117 
L 245.735471 57.464806 
L 246.741587 57.172842 
L 247.642069 56.831832 
L 248.179638 56.718944 
L 248.640293 56.493317 
L 249.656274 56.172185 
L 255.908418 54.395232 
L 259.764023 53.132086 
L 261.173707 52.5591 
L 263.067137 51.810911 
L 264.945448 51.016817 
L 265.917827 50.581524 
L 266.386704 50.425718 
L 266.706274 50.146648 
L 266.820802 50.65298 
L 266.523474 58.259431 
L 266.027873 62.210405 
L 265.53447 64.82075 
L 264.575082 68.251959 
L 263.608297 70.480973 
L 262.611549 72.071805 
L 261.64822 73.306801 
L 260.210256 74.616356 
L 258.753603 75.657821 
L 256.340389 76.98572 
L 255.405725 77.452955 
L 245.488834 81.35276 
L 243.63752 82.003894 
L 242.662829 82.407199 
L 240.789629 83.020458 
L 234.559117 84.660308 
L 231.639489 85.040218 
L 230.652787 85.116967 
L 228.723153 85.073075 
L 225.776379 84.641164 
L 223.879322 84.157492 
L 220.4503 82.792021 
L 219.015249 82.08198 
L 217.611788 81.344517 
L 212.882258 78.738217 
L 211.953573 78.311768 
L 210.071927 77.444708 
L 207.707928 76.565655 
L 206.760879 76.261563 
L 206.357076 75.989636 
L 205.894123 75.988631 
L 203.533063 75.463414 
L 201.6293 75.160953 
L 198.731306 74.939846 
L 196.801397 74.87628 
L 194.86617 74.874711 
L 193.873066 74.935542 
L 191.458539 74.994652 
L 188.992594 75.186442 
L 187.552707 75.265068 
L 183.667927 75.545357 
L 181.724801 75.707979 
L 167.636547 76.591563 
L 166.665801 76.579063 
L 165.738009 76.593015 
L 160.451683 76.622936 
L 159.491204 76.662684 
L 158.0522 76.691872 
L 156.079955 76.740183 
L 156.079955 76.740183 
" style="fill:none;stroke:#000000;stroke-linecap:square;stroke-width:1.5;"/>
   </g>
   <g id="patch_3">
    <path d="M 90 252 
L 90 34.56 
" style="fill:none;stroke:#000000;stroke-linecap:square;stroke-linejoin:miter;stroke-width:0.8;"/>
   </g>
   <g id="patch_4">
    <path d="M 343.636364 252 
L 343.636364 34.56 
" style="fill:none;stroke:#000000;stroke-linecap:square;stroke-linejoin:miter;stroke-width:0.8;"/>
   </g>
   <g id="patch_5">
    <path d="M 90 252 
L 343.636364 252 
" style="fill:none;stroke:#000000;stroke-linecap:square;stroke-linejoin:miter;stroke-width:0.8;"/>
   </g>
   <g id="patch_6">
    <path d="M 90 34.56 
L 343.636364 34.56 
" style="fill:none;stroke:#000000;stroke-linecap:square;stroke-linejoin:miter;stroke-width:0.8;"/>
   </g>
  </g>
  <g id="axes_2">
   <g id="patch_7">
    <path d="M 394.363636 252 
L 648 252 
L 648 34.56 
L 394.363636 34.56 
z
" style="fill:#ffffff;"/>
   </g>
   <g id="matplotlib.axis_3">
    <g id="xtick_8">
     <g id="line2d_13">
      <g>
       <use style="stroke:#000000;stroke-width:0.8;" x="405.531388" xlink:href="#m57ff5a0ff5" y="252"/>
      </g>
     </g>
     <g id="text_14">
      <!-- 300 -->
      <g transform="translate(395.987638 266.598437)scale(0.1 -0.1)">
       <use xlink:href="#DejaVuSans-51"/>
       <use x="63.623047" xlink:href="#DejaVuSans-48"/>
       <use x="127.246094" xlink:href="#DejaVuSans-48"/>
      </g>
     </g>
    </g>
    <g id="xtick_9">
     <g id="line2d_14">
      <g>
       <use style="stroke:#000000;stroke-width:0.8;" x="444.040276" xlink:href="#m57ff5a0ff5" y="252"/>
      </g>
     </g>
     <g id="text_15">
      <!-- 350 -->
      <g transform="translate(434.496526 266.598437)scale(0.1 -0.1)">
       <use xlink:href="#DejaVuSans-51"/>
       <use x="63.623047" xlink:href="#DejaVuSans-53"/>
       <use x="127.246094" xlink:href="#DejaVuSans-48"/>
      </g>
     </g>
    </g>
    <g id="xtick_10">
     <g id="line2d_15">
      <g>
       <use style="stroke:#000000;stroke-width:0.8;" x="482.549165" xlink:href="#m57ff5a0ff5" y="252"/>
      </g>
     </g>
     <g id="text_16">
      <!-- 400 -->
      <g transform="translate(473.005415 266.598437)scale(0.1 -0.1)">
       <defs>
        <path d="M 37.796875 64.3125 
L 12.890625 25.390625 
L 37.796875 25.390625 
z
M 35.203125 72.90625 
L 47.609375 72.90625 
L 47.609375 25.390625 
L 58.015625 25.390625 
L 58.015625 17.1875 
L 47.609375 17.1875 
L 47.609375 0 
L 37.796875 0 
L 37.796875 17.1875 
L 4.890625 17.1875 
L 4.890625 26.703125 
z
" id="DejaVuSans-52"/>
       </defs>
       <use xlink:href="#DejaVuSans-52"/>
       <use x="63.623047" xlink:href="#DejaVuSans-48"/>
       <use x="127.246094" xlink:href="#DejaVuSans-48"/>
      </g>
     </g>
    </g>
    <g id="xtick_11">
     <g id="line2d_16">
      <g>
       <use style="stroke:#000000;stroke-width:0.8;" x="521.058053" xlink:href="#m57ff5a0ff5" y="252"/>
      </g>
     </g>
     <g id="text_17">
      <!-- 450 -->
      <g transform="translate(511.514303 266.598437)scale(0.1 -0.1)">
       <use xlink:href="#DejaVuSans-52"/>
       <use x="63.623047" xlink:href="#DejaVuSans-53"/>
       <use x="127.246094" xlink:href="#DejaVuSans-48"/>
      </g>
     </g>
    </g>
    <g id="xtick_12">
     <g id="line2d_17">
      <g>
       <use style="stroke:#000000;stroke-width:0.8;" x="559.566941" xlink:href="#m57ff5a0ff5" y="252"/>
      </g>
     </g>
     <g id="text_18">
      <!-- 500 -->
      <g transform="translate(550.023191 266.598437)scale(0.1 -0.1)">
       <use xlink:href="#DejaVuSans-53"/>
       <use x="63.623047" xlink:href="#DejaVuSans-48"/>
       <use x="127.246094" xlink:href="#DejaVuSans-48"/>
      </g>
     </g>
    </g>
    <g id="xtick_13">
     <g id="line2d_18">
      <g>
       <use style="stroke:#000000;stroke-width:0.8;" x="598.07583" xlink:href="#m57ff5a0ff5" y="252"/>
      </g>
     </g>
     <g id="text_19">
      <!-- 550 -->
      <g transform="translate(588.53208 266.598437)scale(0.1 -0.1)">
       <use xlink:href="#DejaVuSans-53"/>
       <use x="63.623047" xlink:href="#DejaVuSans-53"/>
       <use x="127.246094" xlink:href="#DejaVuSans-48"/>
      </g>
     </g>
    </g>
    <g id="xtick_14">
     <g id="line2d_19">
      <g>
       <use style="stroke:#000000;stroke-width:0.8;" x="636.584718" xlink:href="#m57ff5a0ff5" y="252"/>
      </g>
     </g>
     <g id="text_20">
      <!-- 600 -->
      <g transform="translate(627.040968 266.598437)scale(0.1 -0.1)">
       <defs>
        <path d="M 33.015625 40.375 
Q 26.375 40.375 22.484375 35.828125 
Q 18.609375 31.296875 18.609375 23.390625 
Q 18.609375 15.53125 22.484375 10.953125 
Q 26.375 6.390625 33.015625 6.390625 
Q 39.65625 6.390625 43.53125 10.953125 
Q 47.40625 15.53125 47.40625 23.390625 
Q 47.40625 31.296875 43.53125 35.828125 
Q 39.65625 40.375 33.015625 40.375 
z
M 52.59375 71.296875 
L 52.59375 62.3125 
Q 48.875 64.0625 45.09375 64.984375 
Q 41.3125 65.921875 37.59375 65.921875 
Q 27.828125 65.921875 22.671875 59.328125 
Q 17.53125 52.734375 16.796875 39.40625 
Q 19.671875 43.65625 24.015625 45.921875 
Q 28.375 48.1875 33.59375 48.1875 
Q 44.578125 48.1875 50.953125 41.515625 
Q 57.328125 34.859375 57.328125 23.390625 
Q 57.328125 12.15625 50.6875 5.359375 
Q 44.046875 -1.421875 33.015625 -1.421875 
Q 20.359375 -1.421875 13.671875 8.265625 
Q 6.984375 17.96875 6.984375 36.375 
Q 6.984375 53.65625 15.1875 63.9375 
Q 23.390625 74.21875 37.203125 74.21875 
Q 40.921875 74.21875 44.703125 73.484375 
Q 48.484375 72.75 52.59375 71.296875 
z
" id="DejaVuSans-54"/>
       </defs>
       <use xlink:href="#DejaVuSans-54"/>
       <use x="63.623047" xlink:href="#DejaVuSans-48"/>
       <use x="127.246094" xlink:href="#DejaVuSans-48"/>
      </g>
     </g>
    </g>
    <g id="text_21">
     <!-- time / [s] -->
     <g transform="translate(498.516974 280.276563)scale(0.1 -0.1)">
      <defs>
       <path d="M 9.421875 54.6875 
L 18.40625 54.6875 
L 18.40625 0 
L 9.421875 0 
z
M 9.421875 75.984375 
L 18.40625 75.984375 
L 18.40625 64.59375 
L 9.421875 64.59375 
z
" id="DejaVuSans-105"/>
       <path d="M 44.28125 53.078125 
L 44.28125 44.578125 
Q 40.484375 46.53125 36.375 47.5 
Q 32.28125 48.484375 27.875 48.484375 
Q 21.1875 48.484375 17.84375 46.4375 
Q 14.5 44.390625 14.5 40.28125 
Q 14.5 37.15625 16.890625 35.375 
Q 19.28125 33.59375 26.515625 31.984375 
L 29.59375 31.296875 
Q 39.15625 29.25 43.1875 25.515625 
Q 47.21875 21.78125 47.21875 15.09375 
Q 47.21875 7.46875 41.1875 3.015625 
Q 35.15625 -1.421875 24.609375 -1.421875 
Q 20.21875 -1.421875 15.453125 -0.5625 
Q 10.6875 0.296875 5.421875 2 
L 5.421875 11.28125 
Q 10.40625 8.6875 15.234375 7.390625 
Q 20.0625 6.109375 24.8125 6.109375 
Q 31.15625 6.109375 34.5625 8.28125 
Q 37.984375 10.453125 37.984375 14.40625 
Q 37.984375 18.0625 35.515625 20.015625 
Q 33.0625 21.96875 24.703125 23.78125 
L 21.578125 24.515625 
Q 13.234375 26.265625 9.515625 29.90625 
Q 5.8125 33.546875 5.8125 39.890625 
Q 5.8125 47.609375 11.28125 51.796875 
Q 16.75 56 26.8125 56 
Q 31.78125 56 36.171875 55.265625 
Q 40.578125 54.546875 44.28125 53.078125 
z
" id="DejaVuSans-115"/>
      </defs>
      <use xlink:href="#DejaVuSans-116"/>
      <use x="39.208984" xlink:href="#DejaVuSans-105"/>
      <use x="66.992188" xlink:href="#DejaVuSans-109"/>
      <use x="164.404297" xlink:href="#DejaVuSans-101"/>
      <use x="225.927734" xlink:href="#DejaVuSans-32"/>
      <use x="257.714844" xlink:href="#DejaVuSans-47"/>
      <use x="291.40625" xlink:href="#DejaVuSans-32"/>
      <use x="323.193359" xlink:href="#DejaVuSans-91"/>
      <use x="362.207031" xlink:href="#DejaVuSans-115"/>
      <use x="414.306641" xlink:href="#DejaVuSans-93"/>
     </g>
    </g>
   </g>
   <g id="matplotlib.axis_4">
    <g id="ytick_5">
     <g id="line2d_20">
      <defs>
       <path d="M 0 0 
L -3.5 0 
" id="m39938d76ca" style="stroke:#0000ff;stroke-width:0.8;"/>
      </defs>
      <g>
       <use style="fill:#0000ff;stroke:#0000ff;stroke-width:0.8;" x="394.363636" xlink:href="#m39938d76ca" y="246.978625"/>
      </g>
     </g>
     <g id="text_22">
      <!-- 0.0 -->
      <g style="fill:#0000ff;" transform="translate(371.460511 250.777844)scale(0.1 -0.1)">
       <use xlink:href="#DejaVuSans-48"/>
       <use x="63.623047" xlink:href="#DejaVuSans-46"/>
       <use x="95.410156" xlink:href="#DejaVuSans-48"/>
      </g>
     </g>
    </g>
    <g id="ytick_6">
     <g id="line2d_21">
      <g>
       <use style="fill:#0000ff;stroke:#0000ff;stroke-width:0.8;" x="394.363636" xlink:href="#m39938d76ca" y="220.360527"/>
      </g>
     </g>
     <g id="text_23">
      <!-- 0.2 -->
      <g style="fill:#0000ff;" transform="translate(371.460511 224.159746)scale(0.1 -0.1)">
       <use xlink:href="#DejaVuSans-48"/>
       <use x="63.623047" xlink:href="#DejaVuSans-46"/>
       <use x="95.410156" xlink:href="#DejaVuSans-50"/>
      </g>
     </g>
    </g>
    <g id="ytick_7">
     <g id="line2d_22">
      <g>
       <use style="fill:#0000ff;stroke:#0000ff;stroke-width:0.8;" x="394.363636" xlink:href="#m39938d76ca" y="193.742429"/>
      </g>
     </g>
     <g id="text_24">
      <!-- 0.4 -->
      <g style="fill:#0000ff;" transform="translate(371.460511 197.541648)scale(0.1 -0.1)">
       <use xlink:href="#DejaVuSans-48"/>
       <use x="63.623047" xlink:href="#DejaVuSans-46"/>
       <use x="95.410156" xlink:href="#DejaVuSans-52"/>
      </g>
     </g>
    </g>
    <g id="ytick_8">
     <g id="line2d_23">
      <g>
       <use style="fill:#0000ff;stroke:#0000ff;stroke-width:0.8;" x="394.363636" xlink:href="#m39938d76ca" y="167.124332"/>
      </g>
     </g>
     <g id="text_25">
      <!-- 0.6 -->
      <g style="fill:#0000ff;" transform="translate(371.460511 170.92355)scale(0.1 -0.1)">
       <use xlink:href="#DejaVuSans-48"/>
       <use x="63.623047" xlink:href="#DejaVuSans-46"/>
       <use x="95.410156" xlink:href="#DejaVuSans-54"/>
      </g>
     </g>
    </g>
    <g id="ytick_9">
     <g id="line2d_24">
      <g>
       <use style="fill:#0000ff;stroke:#0000ff;stroke-width:0.8;" x="394.363636" xlink:href="#m39938d76ca" y="140.506234"/>
      </g>
     </g>
     <g id="text_26">
      <!-- 0.8 -->
      <g style="fill:#0000ff;" transform="translate(371.460511 144.305453)scale(0.1 -0.1)">
       <defs>
        <path d="M 31.78125 34.625 
Q 24.75 34.625 20.71875 30.859375 
Q 16.703125 27.09375 16.703125 20.515625 
Q 16.703125 13.921875 20.71875 10.15625 
Q 24.75 6.390625 31.78125 6.390625 
Q 38.8125 6.390625 42.859375 10.171875 
Q 46.921875 13.96875 46.921875 20.515625 
Q 46.921875 27.09375 42.890625 30.859375 
Q 38.875 34.625 31.78125 34.625 
z
M 21.921875 38.8125 
Q 15.578125 40.375 12.03125 44.71875 
Q 8.5 49.078125 8.5 55.328125 
Q 8.5 64.0625 14.71875 69.140625 
Q 20.953125 74.21875 31.78125 74.21875 
Q 42.671875 74.21875 48.875 69.140625 
Q 55.078125 64.0625 55.078125 55.328125 
Q 55.078125 49.078125 51.53125 44.71875 
Q 48 40.375 41.703125 38.8125 
Q 48.828125 37.15625 52.796875 32.3125 
Q 56.78125 27.484375 56.78125 20.515625 
Q 56.78125 9.90625 50.3125 4.234375 
Q 43.84375 -1.421875 31.78125 -1.421875 
Q 19.734375 -1.421875 13.25 4.234375 
Q 6.78125 9.90625 6.78125 20.515625 
Q 6.78125 27.484375 10.78125 32.3125 
Q 14.796875 37.15625 21.921875 38.8125 
z
M 18.3125 54.390625 
Q 18.3125 48.734375 21.84375 45.5625 
Q 25.390625 42.390625 31.78125 42.390625 
Q 38.140625 42.390625 41.71875 45.5625 
Q 45.3125 48.734375 45.3125 54.390625 
Q 45.3125 60.0625 41.71875 63.234375 
Q 38.140625 66.40625 31.78125 66.40625 
Q 25.390625 66.40625 21.84375 63.234375 
Q 18.3125 60.0625 18.3125 54.390625 
z
" id="DejaVuSans-56"/>
       </defs>
       <use xlink:href="#DejaVuSans-48"/>
       <use x="63.623047" xlink:href="#DejaVuSans-46"/>
       <use x="95.410156" xlink:href="#DejaVuSans-56"/>
      </g>
     </g>
    </g>
    <g id="ytick_10">
     <g id="line2d_25">
      <g>
       <use style="fill:#0000ff;stroke:#0000ff;stroke-width:0.8;" x="394.363636" xlink:href="#m39938d76ca" y="113.888136"/>
      </g>
     </g>
     <g id="text_27">
      <!-- 1.0 -->
      <g style="fill:#0000ff;" transform="translate(371.460511 117.687355)scale(0.1 -0.1)">
       <use xlink:href="#DejaVuSans-49"/>
       <use x="63.623047" xlink:href="#DejaVuSans-46"/>
       <use x="95.410156" xlink:href="#DejaVuSans-48"/>
      </g>
     </g>
    </g>
    <g id="ytick_11">
     <g id="line2d_26">
      <g>
       <use style="fill:#0000ff;stroke:#0000ff;stroke-width:0.8;" x="394.363636" xlink:href="#m39938d76ca" y="87.270038"/>
      </g>
     </g>
     <g id="text_28">
      <!-- 1.2 -->
      <g style="fill:#0000ff;" transform="translate(371.460511 91.069257)scale(0.1 -0.1)">
       <use xlink:href="#DejaVuSans-49"/>
       <use x="63.623047" xlink:href="#DejaVuSans-46"/>
       <use x="95.410156" xlink:href="#DejaVuSans-50"/>
      </g>
     </g>
    </g>
    <g id="ytick_12">
     <g id="line2d_27">
      <g>
       <use style="fill:#0000ff;stroke:#0000ff;stroke-width:0.8;" x="394.363636" xlink:href="#m39938d76ca" y="60.65194"/>
      </g>
     </g>
     <g id="text_29">
      <!-- 1.4 -->
      <g style="fill:#0000ff;" transform="translate(371.460511 64.451159)scale(0.1 -0.1)">
       <use xlink:href="#DejaVuSans-49"/>
       <use x="63.623047" xlink:href="#DejaVuSans-46"/>
       <use x="95.410156" xlink:href="#DejaVuSans-52"/>
      </g>
     </g>
    </g>
    <g id="text_30">
     <!-- $U_{RHE}$ / [V] -->
     <g style="fill:#0000ff;" transform="translate(365.380824 166.58)rotate(-90)scale(0.1 -0.1)">
      <use transform="translate(0 0.015625)" xlink:href="#DejaVuSans-Oblique-85"/>
      <use transform="translate(73.193359 -16.390625)scale(0.7)" xlink:href="#DejaVuSans-Oblique-82"/>
      <use transform="translate(121.831055 -16.390625)scale(0.7)" xlink:href="#DejaVuSans-Oblique-72"/>
      <use transform="translate(174.467773 -16.390625)scale(0.7)" xlink:href="#DejaVuSans-Oblique-69"/>
      <use transform="translate(221.430664 0.015625)" xlink:href="#DejaVuSans-32"/>
      <use transform="translate(253.217773 0.015625)" xlink:href="#DejaVuSans-47"/>
      <use transform="translate(286.90918 0.015625)" xlink:href="#DejaVuSans-32"/>
      <use transform="translate(318.696289 0.015625)" xlink:href="#DejaVuSans-91"/>
      <use transform="translate(357.709961 0.015625)" xlink:href="#DejaVuSans-86"/>
      <use transform="translate(426.118164 0.015625)" xlink:href="#DejaVuSans-93"/>
     </g>
    </g>
   </g>
   <g id="line2d_28">
    <path clip-path="url(#p1e5f84985a)" d="M 405.892562 44.443636 
L 406.277651 44.456328 
L 406.66274 44.682294 
L 407.047829 44.664517 
L 409.358362 45.291637 
L 409.743451 45.350031 
L 410.12854 45.563304 
L 410.513628 45.558228 
L 411.668895 45.852741 
L 414.749606 46.586494 
L 415.134695 46.73629 
L 415.904873 46.769298 
L 417.445228 47.043503 
L 418.215406 47.193299 
L 421.296117 47.746787 
L 421.681206 47.904206 
L 422.066295 47.894045 
L 422.451384 48.03877 
L 422.836473 48.013377 
L 423.221562 48.145403 
L 423.991739 48.229189 
L 430.165638 49.244764 
L 436.639983 71.770799 
L 437.589459 74.959844 
L 439.013671 79.840657 
L 440.912622 86.416084 
L 442.099465 90.588113 
L 444.235784 98.076564 
L 450.407373 119.253692 
L 455.510802 136.944276 
L 461.326337 157.036166 
L 465.124238 170.114233 
L 467.853979 179.45498 
L 472.363986 195.259047 
L 474.262936 201.690595 
L 484.351109 236.524105 
L 485.959317 242.024961 
L 486.037567 241.774459 
L 488.173886 234.48296 
L 490.547574 226.416894 
L 495.413634 209.339839 
L 500.042326 193.598476 
L 507.875496 166.481628 
L 526.971745 100.499562 
L 527.86777 103.622253 
L 529.173298 108.100306 
L 532.971199 121.06129 
L 534.514096 126.516873 
L 536.175754 132.335859 
L 539.02418 142.110621 
L 550.536566 181.756505 
L 551.604725 185.45084 
L 554.809204 196.738755 
L 562.048952 221.618003 
L 567.508434 240.485124 
L 567.978319 242.116364 
L 567.99018 242.037662 
L 568.767597 239.326917 
L 570.429179 233.582197 
L 581.466827 195.541849 
L 588.113153 172.449508 
L 608.989669 100.413238 
L 610.123062 104.424785 
L 613.327541 115.456307 
L 616.413335 125.97808 
L 619.380522 136.425661 
L 627.451061 164.206705 
L 630.536855 174.976312 
L 632.198436 180.618113 
L 636.471074 195.350294 
L 636.471074 195.350294 
" style="fill:none;stroke:#0000ff;stroke-linecap:square;stroke-width:1.5;"/>
   </g>
   <g id="patch_8">
    <path d="M 394.363636 252 
L 394.363636 34.56 
" style="fill:none;stroke:#0000ff;stroke-linecap:square;stroke-linejoin:miter;stroke-width:0.8;"/>
   </g>
   <g id="patch_9">
    <path d="M 648 252 
L 648 34.56 
" style="fill:none;stroke:#000000;stroke-linecap:square;stroke-linejoin:miter;stroke-width:0.8;"/>
   </g>
   <g id="patch_10">
    <path d="M 394.363636 252 
L 648 252 
" style="fill:none;stroke:#000000;stroke-linecap:square;stroke-linejoin:miter;stroke-width:0.8;"/>
   </g>
   <g id="patch_11">
    <path d="M 394.363636 34.56 
L 648 34.56 
" style="fill:none;stroke:#000000;stroke-linecap:square;stroke-linejoin:miter;stroke-width:0.8;"/>
   </g>
  </g>
  <g id="axes_3">
   <g id="matplotlib.axis_5">
    <g id="ytick_13">
     <g id="line2d_29">
      <defs>
       <path d="M 0 0 
L 3.5 0 
" id="mf05db01b14" style="stroke:#008000;stroke-width:0.8;"/>
      </defs>
      <g>
       <use style="fill:#008000;stroke:#008000;stroke-width:0.8;" x="648" xlink:href="#mf05db01b14" y="208.937439"/>
      </g>
     </g>
     <g id="text_31">
      <!-- −0.03 -->
      <g style="fill:#008000;" transform="translate(655 212.736658)scale(0.1 -0.1)">
       <use xlink:href="#DejaVuSans-8722"/>
       <use x="83.789062" xlink:href="#DejaVuSans-48"/>
       <use x="147.412109" xlink:href="#DejaVuSans-46"/>
       <use x="179.199219" xlink:href="#DejaVuSans-48"/>
       <use x="242.822266" xlink:href="#DejaVuSans-51"/>
      </g>
     </g>
    </g>
    <g id="ytick_14">
     <g id="line2d_30">
      <g>
       <use style="fill:#008000;stroke:#008000;stroke-width:0.8;" x="648" xlink:href="#mf05db01b14" y="164.038066"/>
      </g>
     </g>
     <g id="text_32">
      <!-- −0.02 -->
      <g style="fill:#008000;" transform="translate(655 167.837284)scale(0.1 -0.1)">
       <use xlink:href="#DejaVuSans-8722"/>
       <use x="83.789062" xlink:href="#DejaVuSans-48"/>
       <use x="147.412109" xlink:href="#DejaVuSans-46"/>
       <use x="179.199219" xlink:href="#DejaVuSans-48"/>
       <use x="242.822266" xlink:href="#DejaVuSans-50"/>
      </g>
     </g>
    </g>
    <g id="ytick_15">
     <g id="line2d_31">
      <g>
       <use style="fill:#008000;stroke:#008000;stroke-width:0.8;" x="648" xlink:href="#mf05db01b14" y="119.138692"/>
      </g>
     </g>
     <g id="text_33">
      <!-- −0.01 -->
      <g style="fill:#008000;" transform="translate(655 122.937911)scale(0.1 -0.1)">
       <use xlink:href="#DejaVuSans-8722"/>
       <use x="83.789062" xlink:href="#DejaVuSans-48"/>
       <use x="147.412109" xlink:href="#DejaVuSans-46"/>
       <use x="179.199219" xlink:href="#DejaVuSans-48"/>
       <use x="242.822266" xlink:href="#DejaVuSans-49"/>
      </g>
     </g>
    </g>
    <g id="ytick_16">
     <g id="line2d_32">
      <g>
       <use style="fill:#008000;stroke:#008000;stroke-width:0.8;" x="648" xlink:href="#mf05db01b14" y="74.239318"/>
      </g>
     </g>
     <g id="text_34">
      <!-- 0.00 -->
      <g style="fill:#008000;" transform="translate(655 78.038537)scale(0.1 -0.1)">
       <use xlink:href="#DejaVuSans-48"/>
       <use x="63.623047" xlink:href="#DejaVuSans-46"/>
       <use x="95.410156" xlink:href="#DejaVuSans-48"/>
       <use x="159.033203" xlink:href="#DejaVuSans-48"/>
      </g>
     </g>
    </g>
    <g id="text_35">
     <!-- raw current / [mA] -->
     <g style="fill:#008000;" transform="translate(697.24375 189.166719)rotate(-90)scale(0.1 -0.1)">
      <use xlink:href="#DejaVuSans-114"/>
      <use x="41.113281" xlink:href="#DejaVuSans-97"/>
      <use x="102.392578" xlink:href="#DejaVuSans-119"/>
      <use x="184.179688" xlink:href="#DejaVuSans-32"/>
      <use x="215.966797" xlink:href="#DejaVuSans-99"/>
      <use x="270.947266" xlink:href="#DejaVuSans-117"/>
      <use x="334.326172" xlink:href="#DejaVuSans-114"/>
      <use x="373.689453" xlink:href="#DejaVuSans-114"/>
      <use x="412.552734" xlink:href="#DejaVuSans-101"/>
      <use x="474.076172" xlink:href="#DejaVuSans-110"/>
      <use x="537.455078" xlink:href="#DejaVuSans-116"/>
      <use x="576.664062" xlink:href="#DejaVuSans-32"/>
      <use x="608.451172" xlink:href="#DejaVuSans-47"/>
      <use x="642.142578" xlink:href="#DejaVuSans-32"/>
      <use x="673.929688" xlink:href="#DejaVuSans-91"/>
      <use x="712.943359" xlink:href="#DejaVuSans-109"/>
      <use x="810.355469" xlink:href="#DejaVuSans-65"/>
      <use x="878.763672" xlink:href="#DejaVuSans-93"/>
     </g>
    </g>
   </g>
   <g id="line2d_33">
    <path clip-path="url(#p1e5f84985a)" d="M 405.892562 74.239318 
L 429.383292 74.239318 
L 430.165638 70.661735 
L 430.230949 75.155471 
L 430.705687 75.372661 
L 441.031306 78.423593 
L 441.387359 78.545462 
L 441.980781 78.807456 
L 443.048941 79.248038 
L 443.523678 79.488325 
L 444.947891 80.359301 
L 445.18526 80.500944 
L 445.778682 80.92967 
L 446.253419 81.314096 
L 447.08421 82.008342 
L 448.152369 83.100837 
L 448.745791 83.760511 
L 450.05132 85.423713 
L 452.068954 88.5949 
L 454.442642 93.979489 
L 455.273433 96.473994 
L 457.172383 104.080014 
L 457.765805 107.510768 
L 458.596596 114.237366 
L 459.190018 120.818043 
L 459.902124 131.589149 
L 460.376862 141.969374 
L 460.970284 160.764643 
L 461.445021 182.349881 
L 462.631865 241.717649 
L 462.75055 242.116364 
L 462.869234 240.482508 
L 463.106603 230.951419 
L 463.462656 202.479633 
L 464.530816 104.647678 
L 465.005553 80.838089 
L 465.480291 67.902126 
L 465.836344 63.249766 
L 466.192397 61.422133 
L 466.429766 61.163618 
L 466.667135 61.383851 
L 467.141872 62.641428 
L 469.159507 69.35627 
L 469.752929 70.792677 
L 471.058457 72.915785 
L 472.363986 74.210949 
L 473.669514 75.268843 
L 474.975042 76.957981 
L 476.161886 80.190796 
L 477.111361 83.987732 
L 477.586099 85.769016 
L 477.823468 86.213888 
L 478.179521 87.005319 
L 478.535574 87.110287 
L 479.010311 87.658867 
L 479.24768 88.091444 
L 479.603733 88.971464 
L 480.909262 95.243961 
L 481.383999 98.687793 
L 481.621368 99.923396 
L 481.977421 101.950345 
L 482.452159 103.301751 
L 482.689528 103.694085 
L 482.808212 103.400833 
L 482.926896 103.520749 
L 483.164265 102.817751 
L 483.28295 102.816084 
L 483.520318 102.115519 
L 483.639003 102.050498 
L 483.876372 101.555486 
L 484.232425 101.833673 
L 484.351109 102.112579 
L 484.707162 104.239805 
L 485.063215 108.932703 
L 485.419269 117.990834 
L 485.775322 135.658161 
L 485.960396 150.742454 
L 485.972256 146.547123 
L 486.156252 80.831848 
L 486.393621 66.306061 
L 486.630989 62.826218 
L 486.868358 62.053732 
L 487.105727 61.823417 
L 487.343096 61.66917 
L 487.699149 60.827055 
L 488.173886 58.904053 
L 488.648624 56.331803 
L 488.885993 55.391671 
L 489.242046 53.512214 
L 489.36073 53.54068 
L 489.479415 52.88309 
L 489.598099 52.941339 
L 489.835468 52.296121 
L 489.954152 52.499335 
L 490.191521 52.36496 
L 490.42889 52.975409 
L 490.547574 53.101385 
L 490.666259 53.60281 
L 490.784943 53.531884 
L 491.140996 55.327461 
L 491.971787 58.574366 
L 492.32784 59.621848 
L 492.921262 61.593805 
L 494.22679 64.2287 
L 494.345475 64.334834 
L 495.057581 65.813147 
L 495.29495 66.18584 
L 495.769688 67.354622 
L 496.007056 67.909984 
L 497.431269 70.693119 
L 498.024691 71.275615 
L 498.736797 71.636787 
L 500.754432 71.664046 
L 500.991801 71.605588 
L 501.22917 71.551501 
L 501.703907 71.444356 
L 502.416013 71.295223 
L 503.009435 71.088997 
L 503.602857 70.928743 
L 503.958911 70.8065 
L 505.501808 70.095356 
L 505.976545 69.821295 
L 507.282074 68.754274 
L 508.231549 67.292538 
L 508.706286 66.227275 
L 509.181024 64.81418 
L 509.655761 63.019817 
L 510.486552 58.696345 
L 512.266818 48.004151 
L 512.741556 46.696042 
L 513.216293 46.36377 
L 513.809715 46.332459 
L 514.165768 46.07884 
L 514.521822 45.354982 
L 514.877875 44.443636 
L 514.996559 44.482784 
L 515.115244 44.766513 
L 515.352612 46.577813 
L 516.183403 54.11233 
L 516.658141 56.432335 
L 517.251563 57.922035 
L 517.607616 58.369764 
L 517.963669 58.579049 
L 518.557091 58.602704 
L 519.269197 58.089294 
L 520.812094 55.887506 
L 521.405516 55.006446 
L 523.423151 52.954026 
L 523.779204 52.709531 
L 524.966048 51.63447 
L 526.971745 48.793494 
L 527.155663 61.273235 
L 527.511717 67.541646 
L 527.986454 71.525389 
L 528.461192 73.80766 
L 529.291982 76.149571 
L 530.360142 78.228324 
L 530.953564 79.116683 
L 531.546986 80.100003 
L 532.140408 80.935683 
L 532.852514 82.066177 
L 533.683305 83.124671 
L 534.514096 84.084957 
L 535.701017 84.778237 
L 536.056993 84.821281 
L 537.006468 84.150506 
L 537.599967 83.358135 
L 539.02418 79.887992 
L 539.736286 77.821882 
L 541.041814 74.53032 
L 542.228658 72.604804 
L 543.415502 71.842631 
L 544.602346 71.903635 
L 545.551821 72.471762 
L 545.78919 72.580144 
L 546.263928 72.952214 
L 549.587091 75.216665 
L 550.180512 75.477122 
L 550.65525 75.685388 
L 552.5542 76.125675 
L 553.147622 76.20756 
L 553.384991 76.2036 
L 553.62236 76.223386 
L 554.215782 76.308797 
L 555.758679 76.860873 
L 556.352101 77.360792 
L 556.708154 77.776613 
L 557.064207 78.338913 
L 558.013682 80.854079 
L 558.725789 84.124939 
L 559.556579 88.819076 
L 560.150001 90.955 
L 560.268686 90.722578 
L 560.38737 90.877548 
L 560.980792 89.613864 
L 561.099477 89.54741 
L 561.336845 89.142174 
L 561.574214 89.253105 
L 561.692899 89.628522 
L 561.811583 89.568407 
L 562.405005 91.728633 
L 562.879743 94.77451 
L 564.185271 106.418686 
L 564.778693 108.766744 
L 565.372115 106.661063 
L 565.846852 104.245019 
L 566.202906 103.446116 
L 566.32159 103.431647 
L 566.677643 104.493118 
L 567.033696 108.188157 
L 567.389749 115.969079 
L 567.745803 131.865342 
L 567.978319 148.477359 
L 567.99018 146.133143 
L 568.174176 78.157317 
L 568.411544 63.809759 
L 568.648913 60.415851 
L 568.886282 59.530523 
L 569.242335 59.038924 
L 569.479704 58.61091 
L 570.547863 53.250888 
L 571.25997 48.311523 
L 571.378654 48.243088 
L 571.497338 47.571164 
L 571.616023 47.68645 
L 571.853392 47.286593 
L 572.09076 48.072062 
L 572.209445 48.340759 
L 572.684182 51.083476 
L 572.802867 51.300132 
L 573.15892 53.945365 
L 573.871026 56.695077 
L 574.22708 57.636589 
L 574.345764 57.704604 
L 574.820501 58.881356 
L 575.176555 59.318514 
L 575.295239 59.210651 
L 575.413923 59.380253 
L 575.769977 59.220506 
L 575.888661 59.344796 
L 576.007345 59.29537 
L 576.244714 59.671508 
L 576.363399 59.756557 
L 577.431558 63.359756 
L 577.906296 65.340745 
L 578.499718 67.799331 
L 579.567877 70.454151 
L 580.042615 71.07082 
L 580.636037 71.524403 
L 581.585512 71.770298 
L 582.060249 71.763541 
L 582.772356 71.765947 
L 583.009724 71.723678 
L 583.247093 71.686363 
L 583.603147 71.644484 
L 587.282363 70.687089 
L 587.875785 70.399311 
L 589.181313 69.696364 
L 589.774735 69.272181 
L 591.080263 67.719121 
L 592.62316 64.66577 
L 593.335267 63.032111 
L 593.928689 61.903497 
L 594.047373 61.876246 
L 594.403426 61.363554 
L 595.115533 60.936318 
L 597.014483 59.746838 
L 597.251852 59.871698 
L 597.726589 60.958732 
L 598.438695 62.915182 
L 598.913433 63.673396 
L 599.150802 63.83468 
L 599.625539 63.849027 
L 599.981593 63.650114 
L 601.049752 62.388144 
L 601.761858 61.127463 
L 603.304756 58.198015 
L 604.372915 56.718944 
L 604.847653 56.046698 
L 607.458709 52.788072 
L 608.2895 51.365998 
L 608.645553 50.780357 
L 608.966024 50.146648 
L 608.989669 50.65298 
L 609.173587 62.210405 
L 609.52964 68.251959 
L 610.004378 72.071805 
L 610.479115 74.262431 
L 611.309906 76.502307 
L 612.734119 79.038518 
L 615.46386 83.020458 
L 617.36281 84.898854 
L 618.193678 85.107489 
L 618.668415 84.982847 
L 619.024392 84.733231 
L 619.617891 84.157492 
L 621.160711 81.344517 
L 622.585 78.311768 
L 623.178422 77.242283 
L 624.483951 75.661484 
L 625.55211 75.024652 
L 626.62027 74.885395 
L 627.213692 74.934654 
L 627.807114 75.052232 
L 628.756589 75.310603 
L 628.993958 75.35146 
L 629.468695 75.530758 
L 630.062117 75.707979 
L 633.622649 76.591563 
L 633.860018 76.579063 
L 634.216071 76.588883 
L 634.809493 76.662009 
L 635.046862 76.61773 
L 635.284231 76.638211 
L 635.758968 76.637155 
L 636.35239 76.735965 
L 636.471074 76.740183 
L 636.471074 76.740183 
" style="fill:none;stroke:#008000;stroke-linecap:square;stroke-width:1.5;"/>
   </g>
   <g id="patch_12">
    <path d="M 394.363636 252 
L 394.363636 34.56 
" style="fill:none;stroke:#000000;stroke-linecap:square;stroke-linejoin:miter;stroke-width:0.8;"/>
   </g>
   <g id="patch_13">
    <path d="M 648 252 
L 648 34.56 
" style="fill:none;stroke:#008000;stroke-linecap:square;stroke-linejoin:miter;stroke-width:0.8;"/>
   </g>
   <g id="patch_14">
    <path d="M 394.363636 252 
L 648 252 
" style="fill:none;stroke:#000000;stroke-linecap:square;stroke-linejoin:miter;stroke-width:0.8;"/>
   </g>
   <g id="patch_15">
    <path d="M 394.363636 34.56 
L 648 34.56 
" style="fill:none;stroke:#000000;stroke-linecap:square;stroke-linejoin:miter;stroke-width:0.8;"/>
   </g>
  </g>
 </g>
 <defs>
  <clipPath id="pd398922b34">
   <rect height="217.44" width="253.636364" x="90" y="34.56"/>
  </clipPath>
  <clipPath id="p1e5f84985a">
   <rect height="217.44" width="253.636364" x="394.363636" y="34.56"/>
  </clipPath>
 </defs>
</svg>
