<svg width="1259" height="719" xmlns="http://www.w3.org/2000/svg" xmlns:xlink="http://www.w3.org/1999/xlink" overflow="hidden"><defs><clipPath id="clip0"><rect x="4" y="0" width="1259" height="719"/></clipPath></defs><g clip-path="url(#clip0)" transform="translate(-4 0)"><rect x="11.5001" y="203.5" width="316" height="178" stroke="#000000" stroke-linejoin="round" stroke-miterlimit="10" fill="none"/><text font-family="Calibri,Calibri_MSFontService,sans-serif" font-weight="700" font-size="27" transform="translate(20.4372 233)">Measurement <tspan font-weight="400" font-size="27" x="162.12" y="0">base</tspan><tspan font-weight="400" font-size="21" x="0" y="59">-</tspan><tspan font-weight="400" font-size="21" x="36" y="59">Plugging with </tspan><tspan font-size="21" x="157.367" y="59">Backend</tspan><tspan font-weight="400" font-size="21" x="232.113" y="59">, etc.</tspan><tspan font-weight="400" font-size="21" x="0" y="85">-</tspan><tspan font-weight="400" font-size="21" x="36" y="85">Relationships with </tspan><tspan font-size="21" x="199.153" y="85">DataSeries</tspan><tspan font-weight="400" font-size="21" x="0" y="110">-</tspan><tspan font-weight="400" font-size="21" x="36" y="110">Appending/hyphenating with </tspan><tspan font-weight="400" font-size="21" x="36" y="136">the `</tspan><tspan font-size="21" x="76" y="136">+</tspan><tspan font-weight="400" font-size="21" x="86.6667" y="136">` operator</tspan></text><rect x="441.5" y="4.50005" width="366" height="262" stroke="#000000" stroke-linejoin="round" stroke-miterlimit="10" fill="none"/><text font-family="Calibri,Calibri_MSFontService,sans-serif" font-style="italic" font-weight="700" font-size="27" transform="translate(450.53 34)">EC<tspan font-style="normal" font-size="27" x="26.38" y="0">Measurement</tspan><tspan font-style="normal" font-weight="400" font-size="21" x="0" y="59">Everything in </tspan><tspan font-style="normal" font-size="21" x="117.507" y="59">Measurement</tspan><tspan font-style="normal" font-weight="400" font-size="21" x="246.9" y="59">base, AND:</tspan><tspan font-style="normal" font-weight="400" font-size="21" x="0" y="110">-</tspan><tspan font-style="normal" font-weight="400" font-size="21" x="36" y="110">Current and potential</tspan><tspan font-style="normal" font-weight="400" font-size="21" x="0" y="136">-</tspan><tspan font-style="normal" font-weight="400" font-size="21" x="36" y="136">Calibrating RE, normalizing, </tspan><tspan font-style="normal" font-weight="400" font-size="21" x="36" y="161">correcting ohmic drop</tspan><tspan font-style="normal" font-weight="400" font-size="21" x="0" y="187">-</tspan><tspan font-style="normal" font-weight="400" font-size="21" x="36" y="187">Selecting CV cycles</tspan><tspan font-style="normal" font-weight="400" font-size="21" x="0" y="213">-</tspan><tspan font-style="normal" font-weight="400" font-size="21" x="36" y="213">Integrating over potential range</tspan></text><rect x="441.5" y="378.5" width="366" height="210" stroke="#000000" stroke-linejoin="round" stroke-miterlimit="10" fill="none"/><text font-family="Calibri,Calibri_MSFontService,sans-serif" font-style="italic" font-weight="700" font-size="27" transform="translate(450.53 408)">MS<tspan font-style="normal" font-size="27" x="35.6667" y="0">Measurement</tspan></text><path d="M450.53 410.66 486.53 410.66 486.53 412.66 450.53 412.66Z" fill-rule="evenodd"/><text font-family="Calibri,Calibri_MSFontService,sans-serif" font-weight="400" font-size="21" transform="translate(450.53 467)">Everything in <tspan font-weight="700" font-size="21" x="117.507" y="0">Measurement</tspan><tspan font-size="21" x="246.9" y="0">base, AND:</tspan><tspan font-size="21" x="0" y="58">-</tspan><tspan font-size="21" x="36" y="58">Quantifying MS signals</tspan><tspan font-size="21" x="0" y="83">-</tspan><tspan font-size="21" x="36" y="83">Storing MS settings</tspan><tspan font-size="21" x="0" y="109">-</tspan><tspan font-size="21" x="36" y="109">Relationship with mass spectra</tspan></text><rect x="935.5" y="175.5" width="327" height="210" stroke="#000000" stroke-linejoin="round" stroke-miterlimit="10" fill="none"/><text font-family="Calibri,Calibri_MSFontService,sans-serif" font-style="italic" font-weight="700" font-size="27" transform="translate(945.042 205)">ECMS<tspan font-style="normal" font-size="27" x="62.0467" y="0">Measurement</tspan><tspan font-style="normal" font-weight="400" font-size="21" x="0" y="59">Everything in </tspan><tspan font-style="normal" font-size="21" x="117.507" y="59">ECMeasurement</tspan><tspan font-style="normal" font-weight="400" font-size="21" x="0" y="85">AND </tspan><tspan font-style="normal" font-size="21" x="44.1667" y="85">MSMeasurement</tspan><tspan font-style="normal" font-weight="400" font-size="21" x="197.56" y="85">, AND:</tspan><tspan font-style="normal" font-weight="400" font-size="21" x="0" y="136">-</tspan><tspan font-style="normal" font-weight="400" font-size="21" x="36" y="136">Internal calibration</tspan><tspan font-style="normal" font-weight="400" font-size="21" x="0" y="161">-</tspan><tspan font-style="normal" font-weight="400" font-size="21" x="36" y="161">Mass transport modelling</tspan></text><path d="M3.23921-2.34681 105.366 138.615 98.8872 143.308-3.23921 2.34681ZM109.497 130.682 113.86 157.157 90.0619 144.762Z" fill="#4472C4" transform="matrix(1 0 0 -1 327 292.157)"/><path d="M330.434 289.949 434.04 463.433 427.172 467.535 323.566 294.051ZM438.857 455.897 440.86 482.655 418.252 468.203Z" fill="#4472C4"/><path d="M809.058 131.57 920.281 198.309 916.164 205.169 804.942 138.43ZM920.967 189.391 935.372 212.029 908.618 209.971Z" fill="#4472C4"/><path d="M2.95527-2.69563 117.849 123.265 111.939 128.656-2.95527 2.69563ZM121.064 114.918 128.372 140.737 103.333 131.092Z" fill="#4472C4" transform="matrix(1 0 0 -1 807 482.737)"/><rect x="11.5001" y="483.5" width="316" height="229" stroke="#000000" stroke-linejoin="round" stroke-miterlimit="10" fill="none"/><text font-family="Calibri,Calibri_MSFontService,sans-serif" font-weight="700" font-size="27" transform="translate(20.4372 513)">DataSeries<tspan font-weight="400" font-size="21" x="0" y="59">-</tspan><tspan font-weight="400" font-size="21" x="36" y="59">Raw data </tspan><tspan font-weight="400" font-size="21" x="0" y="85">-</tspan><tspan font-weight="400" font-size="21" x="36" y="85">Unit</tspan><tspan font-weight="400" font-size="21" x="0" y="110">-</tspan><tspan font-weight="400" font-size="21" x="36" y="110">Keeping track of time</tspan><tspan fill="#FF0000" font-weight="400" font-size="21" x="0" y="136">Every </tspan><tspan fill="#FF0000" font-weight="400" font-size="21" x="52.2333" y="136">DataSeries</tspan><tspan fill="#FF0000" font-weight="400" font-size="21" x="149.107" y="136">knows its </tspan><tspan fill="#FF0000" font-size="21" x="0" y="161">timestamp</tspan><tspan fill="#FF0000" font-weight="400" font-size="21" x="95.22" y="161">. </tspan><tspan fill="#FF0000" font-weight="400" font-size="21" x="105.387" y="161">So</tspan><tspan fill="#FF0000" font-weight="400" font-size="21" x="131.387" y="161">they line up </tspan><tspan fill="#FF0000" font-weight="400" font-size="21" x="0" y="187">automatically.</tspan></text><path d="M169 381 169 482.796" stroke="#00B050" stroke-width="2" stroke-miterlimit="8" fill="none" fill-rule="evenodd"/></g></svg>